/* XPM */
static char *_74e84f4be594908e0912af4cf7fc32b9vwXijzeJvgvLA0o[] = {
/* columns rows colors chars-per-pixel */
"80 80 21 1 ",
"  c None",
". c black",
"X c #795548",
"o c #987A6B",
"O c #98796D",
"+ c #99796D",
"@ c #997A6C",
"# c #9A7A6D",
"$ c #99796E",
"% c #99796F",
"& c #987A6E",
"* c #997A6E",
"= c #997A6F",
"- c #9A7A6E",
"; c #997A70",
": c #DEAB11",
"> c #FFC107",
", c #FACC44",
"< c #C4A49A",
"1 c #D6BE9C",
"2 c #FFE0B2",
/* pixels */
"                                                                                ",
"                                                                                ",
"                                                                                ",
"                                                                                ",
"                                                                                ",
"                                                                                ",
"                                                                                ",
"                                      ....                                      ",
"                                    ..<<<<..                                    ",
"                                  ..<<<<<<<<..                                  ",
"                                ..<<<<<<<<<<<<..                                ",
"                              ..22..<<<<<<<<<<<<..                              ",
"                            ..112222..<<<<<<<<<<<<..                            ",
"                          ..1111122222..<<<<<<<<<<<<..                          ",
"                       ...22221111122222..<<<<<<<<<<<<...                       ",
"                     ..<<..222221111122222..<<<<<<<<<<<<<..                     ",
"                   ..<<<<<<..222221111122222..<<<<<<<<<<<<<..                   ",
"                 ..<<<<<<<<<<..222221111222222..<<<<<<<<<<<<<..                 ",
"               ..<<<<<<<<<<<<<<.2222221111222222.<<<<<<<<<<<<<<..               ",
"             ..<<<<<<<<<<<<<<<<<..222222111122222..<<<<<<<<<<<<<<..             ",
"           ..<<<<<<<<<<<<<<<<<<<<<..222222111122222..<<<<<<<<<<<<<<..           ",
"         ..<<<<<<<<<<<<<<<<<<<<<<<<<..222222111122222..<<<<<<<<<<<<<<..         ",
"         ..<<<<<<<<<<<<<<<<<<<<<<<<<<<.2222221111222222..<<<<<<<<<<<<..         ",
"         .;..<<<<<<<<<<<<<<<<<<<<<<<<<<..2222221111222222..<<<<<<<<..X.         ",
"         .;;;..<<<<<<<<<<<<<<<<<<<<<<<<<<..2222221111222222..<<<<..XXX.         ",
"         .;;;;;..<<<<<<<<<<<<<<<<<<<<<<<<<<..2222221111222222.<..XXXXX.         ",
"         .;;;;;;;..<<<<<<<<<<<<<<<<<<<<<<<<<<.222222111112222..XXXXXXX.         ",
"         .;;;;;;;;;..<<<<<<<<<<<<<<<<<<<<<<<<<..2222211111211.XXXXXXXX.         ",
"         .;;;;;;;;;;;..<<<<<<<<<<<<<<<<<<<<<<<<<..22222111111.XXXXXXXX.         ",
"         .;;;;;;;;;;;;;..<<<<<<<<<<<<<<<<<<<<<<<<<..222111111.XXXXXXXX.         ",
"         .;;;;;;;;;;;;;;;..<<<<<<<<<<<<<<<<<<<<<<<<..11111111.XXXXXXXX.         ",
"         .;;;;;;;;;;;;;=;;;..<<<<<<<<<<<<<<<<<<<<..X.11111111.XXXXXXXX.         ",
"         .;;;;;;;;;;;...;;;;;..<<<<<<<<<<<<<<<<..XXX.111111111.XXXXXXX.         ",
"         .;;;;;;;;;..,,,..=;;;;..<<<<<<<<<<<...XXXXX.111111111.XXXXXXX.         ",
"         .;;;;;;;;.,,,>>>>.;;;;;;..<<<<<<<..XXXXXXXXX.11111111.XXXXXXX.         ",
"         .;;;;;;;;.,,>>>>>.=;;;;;;;..<<<..XXXXXXXXXXX.11111111.XXXXXXX.         ",
"         .;;;;;;;.,,>>>>>>>.;;;;;;;;;...XXXXXXXXXXXXX.11111111.XXXXXXX.         ",
"         .;;;;;;=.,>>>.>>>>.;;;;;;;;;;.XXXXXXXXXXXXXX.11111111.XXXXXXX.         ",
"         .;;;;==.,>>>>.>>>>>.;;;;;;;;;.XXXXXXXXXXXXXX.11111111.XXXXXXX.         ",
"         .;;;===.,>>>.>.>>>>.;;;;;;;;;.XXXXXXXXXXXXXX.111111..XXXXXXXX.         ",
"         .;;;;==.>.>>.>.>>>>.;;;;;;;;;.XXXXXXXXXXXXXXX.111..XXXXXXXXXX.         ",
"         .;;;;==.>>...>.>>>>.;;;;;;;;;.XXXXXXXXXXXXXXX.1..XXXXXXXXXXXX.         ",
"         .;;;;=.>>>>>...>>>>>.;;;;;;;;.XXXXXXXXXXXXXXX..XXXXXXXXXXXXXX.         ",
"         .;;;;=.>..>..>..>>>>.;;;;;;;;.XXXXXXXXXXXXXXXXXXXXXXXXXXXXXXX.         ",
"         .;;===.>>>..>>>...>>.;;;;;;;;.XXXXXXXXXXXXXXXXXXXXXXXXXXXXXXX.         ",
"         .;;===.>>>>...>.>>.>.;;;;;;;;.XXXXXXXXXXXXXXXXXXXXXXXXXXXXXXX.         ",
"         .;;=oo.>>>>.>>..>>>>.;;;;;;;;.XXXXXXXXXXXXXXXXXXXXXXXXXXXXXXX.         ",
"         .;====.>>>.>>>>...>>.;;;;;;;;.XXXXXXXXXXXXXXXXXXXXXXXXXXXXXXX.         ",
"         .;;===.>>>.>>>>.>>.>.;;;;;;;;.XXXXXXXXXXXXXXXXXXXXXXXXXXXXXXX.         ",
"         .;;==;.>>>.>>>>.>>>>.;;;;;;;;.XXXXXXXXXXXXXXXXXXXXXXXXXXXXXXX.         ",
"         .;;;;;.>>>.>>>>.>>>:.;;;;;;;;.XXXXXXXXXXXXXXXXXXXXXXXXXXXXXXX.         ",
"         .;;==;.>>.>>>>>.>>>:.;;;;;;;;.XXXXXXXXXXXXXXXXXXXXXXXXXXXXXXX.         ",
"         .;==;;.>>.>>>>>>.>::.;;;;;;;;.XXXXXXXXXXXXXXXXXXXXXXXXXXXXXXX.         ",
"         .;=====.>.>>>>>>.>:.;;;;;;;;;.XXXXXXXXXXXXXXXXXXXXXXXXXXXXXXX.         ",
"         .;;====.>>>>>>>>.>:.;;;;;;;;;.XXXXXXXXXXXXXXXXXXXXXXXXXXXXXXX.         ",
"         .;;;===.>>>>>>>>.>:.;;;;;;;;;.XXXXXXXXXXXXXXXXXXXXXXXXXXXXXXX.         ",
"         .;;;;;;.>>>>>>>>.::.;;;;;;;;;.XXXXXXXXXXXXXXXXXXXXXXXXXXXXXXX.         ",
"         .;;;;;;;.>>>>>>>>:.;;;;;;;;;;.XXXXXXXXXXXXXXXXXXXXXXXXXXXXXXX.         ",
"         .;;;;;;;.>>>>>>>::.;;;;;;;;;;.XXXXXXXXXXXXXXXXXXXXXXXXXXXXXXX.         ",
"         .;;;;;;;;.>>>>>::.;;;;;;;;;;;.XXXXXXXXXXXXXXXXXXXXXXXXXXXXXXX.         ",
"         ..;;;;;;;.>>>>:::.;;;;;;;;;;;.XXXXXXXXXXXXXXXXXXXXXXXXXXXXXX..         ",
"           ..;;;;;;..:::..;;;;;;;;;;;;.XXXXXXXXXXXXXXXXXXXXXXXXXXXX..           ",
"             ..;;;;;;...;;;;;;;;;;;;;;.XXXXXXXXXXXXXXXXXXXXXXXXXX..             ",
"               ..;;;;;;;;;;;;;;;;;;;;;.XXXXXXXXXXXXXXXXXXXXXXX...               ",
"                 ..;;;;;;;;;;;;;;;;;;;.XXXXXXXXXXXXXXXXXXXXX..                  ",
"                   ..;;;;;;;;;;;;;;;;;.XXXXXXXXXXXXXXXXXXX..                    ",
"                     ..;;;;;;;;;;;;;;;.XXXXXXXXXXXXXXXXX..                      ",
"                       ..;;;;;;;;;;;;;.XXXXXXXXXXXXXX...                        ",
"                         ..;;;;;;;;;;;.XXXXXXXXXXXX..                           ",
"                           ..;;;;;;;;;.XXXXXXXXXX..                             ",
"                             ..;;;;;;;.XXXXXXX...                               ",
"                               ..;;;;;.XXXXX..                                  ",
"                                 ..;;;.XXX..                                    ",
"                                   .......                                      ",
"                                                                                ",
"                                                                                ",
"                                                                                ",
"                                                                                ",
"                                                                                ",
"                                                                                "
};
