/* XPM */
static char *_5d9184a07f14f1db920388abcde80c3ZLDxw3hpp2dfaibQ[] = {
/* columns rows colors chars-per-pixel */
"80 80 55 1 ",
"  c None",
". c #464646",
"X c #EE251F",
"o c #EF281F",
"O c #EF2B1F",
"+ c #F33E17",
"@ c #F1301A",
"# c #ED1B22",
"$ c #ED1B23",
"% c #ED1C21",
"& c #ED1C23",
"* c #ED1D23",
"= c #EE1E22",
"- c #ED1B24",
"; c #EC1C24",
": c #ED1C24",
"> c #EE2121",
", c #EF2520",
"< c #EF2F20",
"1 c #F8520C",
"2 c #F9520D",
"3 c #F3561B",
"4 c #FB6507",
"5 c #FD7104",
"6 c #FF7D00",
"7 c #FF7E00",
"8 c #FD7805",
"9 c #FF8001",
"0 c #FF8401",
"q c #FF8602",
"w c #FB8B0F",
"e c #FF9103",
"r c #FF9104",
"t c #FF9204",
"y c #FF9404",
"u c #FF9504",
"i c #FF9505",
"p c #FB9812",
"a c #FFB00A",
"s c #FFB80A",
"d c #FFB90B",
"f c #FFB80C",
"g c #FFB90C",
"h c #FFC10A",
"j c #FFC10B",
"k c #FFC00C",
"l c #FFC10C",
"z c #FFC10D",
"x c #FFC20C",
"c c #FFC20D",
"v c #FFC10E",
"b c #FFC20E",
"n c #B4B4B4",
"m c #99D9EA",
"M c #CFD8DC",
/* pixels */
"                                       :                                        ",
"                                      :::                                       ",
"                                     :::::                                      ",
"                                   :::::::::                                    ",
"                                 :::::::::::::                                  ",
"                                :::::::::::::::                                 ",
"                               :::::::::::::::::                                ",
"                              :::::::::::::::::::                               ",
"                             :::::::::::::::::::::                              ",
"                           :::::::::::::::::::::::::                            ",
"                          :::::::::::::::::::::::::::                           ",
"                         :::::::::::::::::::::::::::::                          ",
"                        :::::::::::::::::::::::::::::::                         ",
"                      :::::::::::::::::::::::::::::::::::                       ",
"                      :::::::::::::::::::::::::::::::::::                       ",
"                     :::::::::::::::::::::::::::::::::::::                      ",
"                     :::::::::::::::::::::::::::::::::::::                      ",
"                   :::::::::::::::::::::::::::::::::::::::::                    ",
"                   :::::::::::::::::::::::::::::::::::::::::                    ",
"                   :::::::::::::::::::::::::::::::::::::::::                    ",
"                   :::::::::::::::::::::::::::::::::::::::::                    ",
"                   mmmmmmmmmmmmmmmmmmmmmmmmmmmmmmmmmmmmmmmmm                    ",
"                   mmmmmmmmmmmmmmmmmmmmmmmmmmmmmmmmmmmmmmmmmm                   ",
"                  mmmmmmmmmmmmmmmmmmmmmmmmmmmmmmmmmmmmmmmmmmm                   ",
"                 mmmmmmmmmmmmmmmmmmmmmmmmmmmmmmmmmmmmmmmmmmmmm                  ",
"                 mmmmmmmmmmmmmmmmmmmmmmmmmmmmmmmmmmmmmmmmmmmmm                  ",
"                 mmmmmmmmmmmmmmmmmmmmmmmmmmmmmmmmmmmmmmmmmmmmm                  ",
"                 mmmmmmmmmmmmmmmmmmmmmmmmmmmmmmmmmmmmmmmmmmmmm                  ",
"                 mmmmmmmmmmmmmmmmmmmmmmmmmmmmmmmmmmmmmmmmmmmmm                  ",
"                 mmmmmmmmmmmmmmmmmmmmmmmmmmmmmmmmmmmmmmmmmmmmm                  ",
"                 mmmmmmmmmmmmmmmmmmmmmmmmmmmmmmmmmmmmmmmmmmmmm                  ",
"                 mmmmmmmmmmmmmmmmmmmmmmmmmmmmmmmmmmmmmmmmmmmmm                  ",
"                 mmmmmmmmmmmmmmmmmmmmmmmmmmmmmmmmmmmmmmmmmmmmm                  ",
"                 mmmmmmmmmmmmmmmmmmmmmmmmmmmmmmmmmmmmmmmmmmmmm                  ",
"                 mmmmmmmmmmmmmmmmmmmmmmmmmmmmmmmmmmmmmmmmmmmmm                  ",
"                 mmmmmmmmmmmmmmmmmmmmmmmmmmmmmmmmmmmmmmmmmmmmm                  ",
"                 mmmmmmmmmmmmmmmmmmmmmmmmmmmmmmmmmmmmmmmmmmmmm                  ",
"                 mmmmmmmmmmmmmmmmmmmmmmmmmmmmmmmmmmmmmmmmmmmmm                  ",
"                 mmmmmmmmmmmmmmmmmmmmmmmmmmmmmmmmmmmmmmmmmmmmm                  ",
"                 mmmmmmmmmmmmmmmmmmmmmmmmmmmmmmmmmmmmmmmmmmmmm                  ",
"                 mmmmmmmmmmmmmmmmmmmmmmmmmmmmmmmmmmmmmmmmmmmmm                  ",
"                 mmmmmmmmmmmmmmmmmmmmmmmmmmmmmmmmmmmmmmmmmmmmm                  ",
"                 mmmmmmmmmmmmmmmmmmmmmmmmmmmmmmmmmmmmmmmmmmmmm                  ",
"                 mmmmmmmmmmmmmmmmmmmmmmmmmmmmmmmmmmmmmmmmmmmmm                  ",
"                  mmmmmmmmmmmmmmmmmmmmmmmmmmmmmmmmmmmmmmmmmmm                   ",
"                  mmmmmmmmmmmmmmmmmmmmmmmmmmmmmmmmmmmmmmmmmmm                   ",
"                   mmmmmmmmmmmmmmmmmmmmmmmmmmmmmmmmmmmmmmmmm                    ",
"                   mmmmmmmmmmmmmmmmmmmmmmmmmmmmmmmmmmmmmmmm                     ",
"                    mmmmmmmmmmmmmmmmmmmmmmmmmmmmmmmmmmmmmm                      ",
"                     mmmmmmmmmmmmmmmmmmmmmmmmmmmmmmmmmmmm                       ",
"                      mmmmmmmmmmmmmmmmmmmmmmmmmmmmmmmmmm                        ",
"                       mmmmmmmmmmmmmmmmmmmmmmmmmmmmmmmm                         ",
"                       mmmmmmmmmmmmmmmmmmmmmmmmmmmmmmmm                         ",
"                       mmmmmmmmmmmmmmmmmmmmmmmmmmmmmmmm                         ",
"                       mmmmmmmmmmmmmmmmmmmmmmmmmmmmmmmm                         ",
"                       mmmmmmmmmmmmmmmmmmmmmmmmmmmmmmmm                         ",
"                       mmmmmmmmmmmmmmmmmmmmmmmmmmmmmmmm                         ",
"                       mmmmmmmmmmmmmmmmmmmmmmmmmmmmmmmm                         ",
"                       mmmmmmmmmmmmmmmmmmmmmmmmmmmmmmmm                         ",
"                       ................................                         ",
"                       ................................                         ",
"                       nnnnnnnnnnnnnnnnnnnnnnnnnnnnnnnn                         ",
"                       nnnMMMMMMMMMMMMMMMMMMMMMMMMMMMnn                         ",
"                       nnMnnnnnnnnnnnnnnnnnnnnnnnnnnnMn                         ",
"                       nnnMMMMMMMMMMMMMMMMMMMMMMMMMMMnn                         ",
"                       nnnnnnnnnnnnnnnnnnnnnnnnnnnnnnnn                         ",
"                        vvvvvvv77777:::7::::$Oohihdvv                           ",
"                       vv vvvv77777::::::::*$:o7hivcvv                          ",
"                         bccvdv97757:::::::-:7779ivchvv                         ",
"                        bbccivuu73777:::::$$p477vxxvvcv                         ",
"                         bvcvviiq77+*@::::*X777idgchvvh                         ",
"                      vv  vvvvvvag7OO8o::21X**ovivcvvv                          ",
"                        bbvvvvhivhv7h<-$>7oo7777qivccv                          ",
"                            vvhvviith774wo*o777vvvccvvv                         ",
"                          b  vvvvvvg77777q7vd7vdcvc  vv                         ",
"                          bbvhvvvvvdv777iiriirvvvvvbvv                          ",
"                           vvhvhccivvv9cgcgcithiuvvvvv                          ",
"                            vvvcvhcviutvvvbcvvvvvvcv                            ",
"                              vvvvvvvvgviibvvvc vvv                             ",
"                               vvvvvvvvvvvhvhvhvvv                              "
};
