/* XPM */
static char *_e7aa04557c54992a48e2f783a0032b0amXq8GLYOBlLwI87[] = {
/* columns rows colors chars-per-pixel */
"80 80 13 1 ",
"  c #101230",
". c #FF7E00",
"X c #F2A55C",
"o c #6F3198",
"O c #4527A0",
"+ c #575C9C",
"@ c #4D6DF3",
"# c #00B7EF",
"$ c #FFFF8D",
"% c #FFF9BD",
"& c #B5A5D5",
"* c #99D9EA",
"= c white",
/* pixels */
"            o&o                                                                 ",
"             o                                                                  ",
"                            X        X                   $            #         ",
"                                                                     #*#        ",
"                                           $                        *#@#+       ",
"      *                O                                           +#*=@##      ",
"               $     OO         X                                 ##@===**+     ",
"                     OO                                            *#*=*@#      ",
"                    O                                  $            @*@*+       ",
"         $                           .           X                   +##        ",
"   $                                .X.                               *         ",
"                                   X.%.X                                        ",
"                                  X.%%%..                                       ",
"            *          X         ..%%%%%X.                                      ",
"                                  X.%%%..                                       ",
"                                   .X%X.     $                                  ",
"        $    $                      ...                                         ",
"                                     X                        o                 ",
"   *                                             X           o#o                ",
"                                                              o                 ",
"                                       $                                   $    ",
"                                                                     $          ",
"            *                X                                                  ",
"                                                                                ",
"                                                                                ",
"      $                                                                         ",
"                                           X                       $            ",
"                                                                                ",
"             o                                         $                        ",
" *          o&o         * #  =                                             $    ",
"             o                                                                  ",
"                              =                            *                    ",
"                            #                                                   ",
"                               =  =                                             ",
"      *                                                       =        O        ",
"                             *   = =        $                           OO      ",
"            $        $          #   =                                   OO      ",
"                                   *  =             *                     O     ",
"                                 =                         *       *            ",
"        #                      =    =  *                                        ",
"       #*#                       #*  #                                          ",
"      *#@#+                         =#                         =                ",
"     +#*=@##                     =     =                 =                      ",
"    ##@===**+                      =  *             *                           ",
"     *#*=*@#              $              =         =                    =       ",
"      @*@*+                         =  #                                        ",
"       +##        *               #  *   =                   *                  ",
"        *                                  *                                    ",
"                                        =                                       ",
"                                      #        =                   =            ",
"                                                                                ",
"                                         #          o                           ",
"   O                                               o&o    *                     ",
" OO                                                 o           =               ",
" OO                                                                             ",
"O                                          *                             X      ",
"           =  # *                                                               ",
"                                                    *                           ",
"          =                    $                                      $         ",
"            #                                              X                    ",
"      =  =                                                                      ",
"                    o                            *             *                ",
"     = =   *       o=o                  $                                       ",
"    =   #           o                                                           ",
"  =  *                                                             X            ",
"       =                                                          ...       $   ",
" *  =    =                                   O                   .X%X.          ",
"   #  *#           O                       OO                   X.%%%..         ",
"   #=               O                      OO        X         ..%%%%%X.        ",
" =     =             OO            #      O                     X.%%%..         ",
"  *  =               OO           #*#                            X.%.X          ",
"                       O         *#@#+                            .X.           ",
" #  =                   O       +#*=@##                            .            ",
"   *  #                        ##@===**+                                        ",
"                                *#*=*@#            $                            ",
"=                $               @*@*+                        X                 ",
"  #                               +##                                           ",
"                                   *                                            ",
"                                                                      o         ",
"                                                                     o&o        "
};
