/* XPM */
static char *df12dd9423e744089fcdc51b293e3bechi4deHB9xe8m2pFc[] = {
/* columns rows colors chars-per-pixel */
"80 80 147 2 ",
"   c None",
".  c #000000",
"X  c #0B0605",
"o  c #0C0807",
"O  c #110706",
"+  c #130A05",
"@  c #140E0B",
"#  c #1B0C09",
"$  c #16120E",
"%  c #1D1412",
"&  c #230F0C",
"*  c #281707",
"=  c #281807",
"-  c #24100C",
";  c #2A120E",
":  c #2E1B09",
">  c #31150F",
",  c #351A0E",
"<  c #391E0D",
"1  c #211713",
"2  c #2F1410",
"3  c #251A16",
"4  c #2E1813",
"5  c #2F1E1A",
"6  c #301510",
"7  c #341A15",
"8  c #381C15",
"9  c #351F18",
"0  c #391E1A",
"q  c #3C230C",
"w  c #2E271F",
"e  c #352011",
"r  c #3B2414",
"t  c #3D2915",
"y  c #36231E",
"u  c #3B231D",
"i  c #3D2A1D",
"p  c #352520",
"a  c #3E2723",
"s  c #352C24",
"d  c #3B2D24",
"f  c #3D3025",
"g  c #3D3329",
"h  c #442A12",
"j  c #43251D",
"k  c #462D1A",
"l  c #432622",
"z  c #422A25",
"x  c #4A2A20",
"c  c #452D28",
"v  c #492F2A",
"b  c #42342B",
"n  c #4E332D",
"m  c #4A342C",
"M  c #4A342D",
"N  c #4E342E",
"B  c #4F352E",
"V  c #4F362E",
"C  c #4F362F",
"Z  c #4F372F",
"A  c #4D332D",
"S  c #49382E",
"D  c #50332A",
"F  c #52352D",
"G  c #50362F",
"H  c #51372F",
"J  c #55372E",
"K  c #51362E",
"L  c #51382E",
"P  c #51382F",
"I  c #56382E",
"U  c #4D3730",
"Y  c #4F3931",
"T  c #4F3A31",
"R  c #513630",
"E  c #503730",
"W  c #513730",
"Q  c #513731",
"!  c #523630",
"~  c #523730",
"^  c #533730",
"/  c #533730",
"(  c #513830",
")  c #513831",
"_  c #533830",
"`  c #523B31",
"'  c #533932",
"]  c #513B33",
"[  c #533B32",
"{  c #573930",
"}  c #563932",
"|  c #553A33",
" . c #543B33",
".. c #563A33",
"X. c #573B33",
"o. c #533D33",
"O. c #553C33",
"+. c #553C34",
"@. c #543A32",
"#. c #593C31",
"$. c #583C33",
"%. c #583B34",
"&. c #593B34",
"*. c #583C34",
"=. c #593D34",
"-. c #593C35",
";. c #5B3D35",
":. c #593E34",
">. c #5A3E35",
",. c #5B3E35",
"<. c #5B3F35",
"1. c #5B3D36",
"2. c #583E36",
"3. c #583F37",
"4. c #593F37",
"5. c #5A3E36",
"6. c #5B3E36",
"7. c #5A3F36",
"8. c #5B3F36",
"9. c #5B3F37",
"0. c #5C3E36",
"q. c #5C3F36",
"w. c #5D3F36",
"e. c #5C3F37",
"r. c #5D3F37",
"t. c #5A3E35",
"y. c #5D4036",
"u. c #5D4037",
"i. c #5D4037",
"p. c #5B4138",
"a. c #5C4338",
"s. c #5F4239",
"d. c #5F453A",
"f. c #5D4238",
"g. c #62443A",
"h. c #65443B",
"j. c #65473D",
"k. c #67463E",
"l. c #65473D",
"z. c #67483D",
"x. c #67483D",
"c. c #68483F",
"v. c #69483F",
"b. c #69483F",
"n. c #6C4C41",
"m. c #6D4C41",
"M. c #6D4C41",
/* pixels */
". . . . . . . . . . . . . . . . . .   .     .   .     . . . . . . . . . . . . . . .     .       .     .     .   . . .     . . . . . . . . . . . . .             ",
". . . . . . . . . . . . . . . . . . . o @ . . . . . . . .   . . . . . . . . . . . . . . . . . . .   .   . . . . . . . . . . . . . . . . a . . . . . . .   .     ",
". . . . . . . . n.. . . . . . . . . X . . . . . . . . . . . . . . . . . . . . . . . . . . . . . . . . . . . . . . . . . . . . . . . . @ a z . g s . . . . . .   ",
". . . . b.k.. %.Q %.. . . . . . . p.*.Z u.. . . U . . . . . . . . . . g s g . . . . . . . . . . . . . . . . . . . . . . . . . . . . a a @ @ @ g g . . . . . . . ",
". m.. m.1 % 1 1 %.*.o . p.m . . c L % p.1.p.. % U *.g . X $ g . . . w $ g g s . . . . s g . . . 9.. . . 9.o . p o . . . . . *.U . @ . X a a p g $ X . . . . . . ",
"X 1 1 b.*.m.g.N 1 o % @ X . . % u.:.u.u.1 % % p.p.% $ $ g X . . . $ g g g X $ @ g . $ s g g . 9.Y p.. j.% % X o % p.. . . b @ @ @ a z a a g g $ g g g . . . . . ",
". M.1.b.3 % N N N N N c n % @ ) o X 1 1.u.u.L 1.% % g s g $ $ w w X . . $ g g $ $ X $ g $ $ @ 9.% 3 % 9.3.9.U 3.o . . . % f.z a y a @ $ g g g g g $ . . . . . . ",
"b 3 M.*.U N N N n N N N n u.u.f.u.u.u.u.u.u.u.:.p.p.g g g g g g g g g g g g g g g s g $ $ g s.m.3 1 f.M.3 3 3.p.3.9.U c $ . . @ a a z a g g g g g s g . . . . . ",
". m.*.m.b.N N N N 1.u.G *.1.u.u.u.u.u.u.u.u.p.p.9.g g g g g g g g g g g g g g g g g g g g g M.m.M.M.M.M.n.3.n.3.9.3.3.3.3.U a a a a g g g g g g $ g s s . $ . . ",
". . m.% N a N N _ Q _ ) u.O.g u.u.u.b u.u.u.m g g g g b g d g g d g g g g g g g g g g g g g m.m.M.M.M.M.n.n.j.3.9.3.3.3.z a a a a g g g g g g g g g $ X @ g . . ",
". . . c % A N N _ b.u.*.:.m L u.u.` 1.p.u.g m g g g g p s s d g g g g g g d g g g g g d g g g M.M.M.M.M.n.g T 9.g g p.a z a z a g g g g g g g g g g $ g s . . . ",
". . . . % % N *._ _ _ b g g ` ` +.g 1.p.u.` p.O.g d p 0 b 6 g g 7 g g s g g g g g f g g s g g M.M.g g n.g ] T ] T T Y a a a a a g g g g g g g g g g g g . . .   ",
". . . 3 *.N u.1.O.y.` ` ) g g g b g ) ` b g *.*.d p y 6 6 6 9 d d g d d g y g g s f d 9 g g d g g f.f.j.g g g b g Y Q a U U a g g g g g g g g g g g g . . . . . ",
". . 3 c Q . z.1 L m p.y.` g g g g g g g g g g g g 9 6 7 g 6 g 6 6 s 9 9 d g g g g 7 s g 6 g g d g g g b g s.p.g a a a a g g g g g g g g g g g g g g s g . . .   ",
". . m.m.. . . L % u.y.Z ` b g g g g g g g f g g 9 7 6 6 6 6 6 6 6 2 9 9 g > g 9 2 6 6 6 g 9 g d g g g g g g g g a a a a g g g g g g g g g g g g g $ g g s . .   ",
". . . . . . . . o p.g s g g g g g g g f g g g g g g 6 6 6 6 6 6 > 2 6 9 6 6 2 6 6 2 6 6 6 g 6 g d g g g g g g g a a g g g g b M g g g g g g g g g g s $ $ . .   ",
"  . . g.. . . u.*.p.f.g ) g b g g g d f g y f g f 2 2 6 2 6 6 6 6 6 6 6 6 6 6 6 6 6 6 6 6 2 0 6 g g g g g g g g g g b g b b g g g g g g g g g g g s s g $ . . . ",
". . . . . . g.m . ) 1 u.s ` g g g g f y g g g g f 6 6 6 6 6 6 2 6 6 6 6 6 6 6 6 6 6 6 6 6 2 2 4 g g g g g g g g g b b b o.b O.*.g g b g g g g g g g $ g g . .   ",
"    . . . . 3 . . . f.1 u.` g g g g y g g 6 g 4 6 7 g 6 6 6 2 2 6 6 6 6 6 6 6 6 6 6 6 6 4 6 f g g g g g g g g g g g ` g ` *.g g b g g g g g g g g $ g g . . .   ",
"  . . . . . . . . . . 1 s g g g d g f g 6 6 ; g 9 6 6 6 6 6 6 6 6 6 6 6 8 > 6 2 6 6 6 6 6 6 d g g g g g g g g g g ) g ` u.g u.f.` p.b b g g g g g g g . . . . . ",
"    . . . . a . . . u.p.g g d g g g g 2 6 6 6 6 6 6 2 6 6 6 6 6 6 6 x x x 6 6 6 6 6 6 6 6 6 0 g g g g g g g g g g g f u.u.u.*.u.u.P :.b g g g g g g . . . . . . ",
"      . .   . . . . _ 1 g s d g y g d d 6 6 > 6 6 6 6 6 6 6 6 6 x x x j 6 6 6 6 6 6 6 6 p g 7 6 g g g g g g a a a g u.u.u.u.u.u.u.1.:.m g g g g g w s . . . .   ",
"  . . .     . . . . . *.% ` y f f y g g g 6 6 6 6 6 2 2 6 *.1.*.x x x x 6 6 6 6 2 0 6 g d g g g g g g g z a a a a b g p.1.u._ u.u.g ` g b f g g $ g $ g . . .   ",
"  .     . . . . . . . . $ y g g ; f y u e 6 6 6 6 2 p.9.9.9.x x x 6 6 6 6 6 6 ; y 6 7 f 9 9 g g g g g p a a a a ` g ) p.I u.u.u.u.p.p.` b g g g g + + O . . .   ",
"      . . .   . . . . *.g d g 2 6 8 f 9 6 6 6 2 2 3.9.3.x x x j j 7 6 6 6 6 6 6 6 g 9 g 9 9 g g g g a z a a a a g g u.L 1.1.G u.L u.1.1.g g b f 6 6 6 . . . . . ",
"    . . . . . . 3 . f.M g g 2 2 9 0 > A 6 2 9.9.9.3.3.x k j j x j > 6 6 6 6 6 6 6 2 9 g g g g g g a a a a a a a p.u.*.u.1.G N N u.J u.*.g f d 6 6 6 . . . . . . ",
"  .   . . . . . 1 o k.d g 9 f 7 > v > ; 2 9.9.9.9.p.x x j j 6 6 6 6 6 6 d g 7 > 2 g g g g g g g g a a a a a a l p.*.1.u.N N N N m L S g i i i < 6 ; > . . .     ",
".     . . . . . . 1 *.@ + g b b D A 6 u.7 9.3.9.3.j x x x 6 6 6 6 6 6 6 g g d > g f g g f g g g a a a a a a c u.*.u._ u.1.N N N p.y.m d t t q q + > > 6 . .     ",
"    . . . . . . g g 9 g g 6 9 D > > u.u.u.*.1._ x x x x > 2 6 6 6 6 7 d g 9 9 7 g g d g g g a a a a a a l c p.u.u._ I u.G u.N 1.*.*.O.L q q 8 q 6 , + + . .     ",
"    . . . . . $ s g g g 6 6 A 2 6 1.u.1.u.u.{ k x 8 x 6 6 6 6 6 6 4 6 9 g g g d d 9 9 a 7 a a a a a a c l c G u.u.*.u.N n n ) I M g *.:.> i q q q q , > . . . . ",
".       . . @ s g g g 2 6 6 6 > 1.1.g.g.u.x x 8 x 6 6 6 6 ; 6 6 6 6 2 9 g g f g a a 7 a z a a a a a z a m G u.u.1.u.N N N N N M M b d , i q 6 q > q : > . .     ",
"    . . . . s g $ $ g g 6 6 6 u.1.s.1.1.{ x 8 x 2 2 6 6 2 d 6 6 6 6 g g g d a a 7 7 a a 6 a 7 a a a f.U u.u.N u._ 1.1.N N N 1.g ` ) r r q ; : > q , + > . .     ",
"  .   . . g o $ s 9 g g g 6 8 6 w.r.s.&.j k 6 6 6 6 6 7 6 g g ; 6 d d g a a 7 a 6 6 6 6 6 2 a 9 *.f._ f.u.N N n I Q u.u.N b b 1.*.+., q > ; 6 6 6 + > 6 . . .   ",
"    . . . . g $ g d d 9 6 n 6 6 1.r.x x j A A 6 6 6 6 6 y 7 6 > 9 g d a a 7 a 6 6 6 6 6 6 6 6 j f.1.g.1.N N N N n L ) Z m g g g g i 6 7 > > 6 6 < , 6 . . .   . ",
"  . . . . . . $ g g 9 g g d 6 v F } k j > 6 6 g 6 6 6 g f g g d f 6 6 9 9 a 6 6 6 6 6 2 6 6 u.1.u.1.1.G N N N N _ u.b m g ) L m d > > q 6 6 6 , < , . . . . . . ",
"  . . . . . g g g 9 g g 6 g 6 6 &.x x D v 6 6 g y 6 d d g g g g g a 9 6 6 6 6 6 6 6 6 > 6 1._ 1.u.Q { 1.N N N 1.1.O.S g g g g i u 6 7 6 6 6 6 > , , q . . .     ",
". . . g . g s g g g g 6 6 6 6 6 6 x x 6 6 6 6 6 > 6 d g g g g g g 7 l 6 6 2 2 6 6 6 6 l u u.u.) u.L u.u.I N Q :.*.b *.f.` g i 9 7 < 6 6 6 6 6 > O , > ; . .     ",
". . $ $ @ g g g g g 6 6 6 6 6 6 6 6 6 > 6 6 6 6 ; 6 f y y g g a l a a 2 6 6 6 6 6 7 8 r.&.1.A x 1.N u.G G Q *.u.) M *.*.g i r > 6 > 6 6 6 6 6 > ; ; O o . .     ",
". . g $ s s $ $ g f g 6 6 6 2 6 6 6 6 6 6 6 6 6 6 6 g g a a a a a a 2 2 2 0 6 8 l 1.1.J 1.u.1.1.G N N g _ 1.u.m M g g g a t < > 6 > 6 6 > 6 7 8 e y 2 . . . . . ",
". . . g $ g g g 9 g g 9 6 6 6 6 6 6 6 6 g 6 6 6 f g g g a a a a a a a l 0 8 r.1._ L N ;.1.:.u.N N N N N M u.g b g g g t t q > 6 6 6 6 6 6 6 7 h , # 6 X .       ",
". . . . $ g g g g g 9 9 7 4 6 6 6 6 6 g 9 0 6 g i g g a a a a a 7 v v ' 7 K K r.n 1.1.G 1._ 1.*.N N N u.u.*.g g g g f t q < > , 6 6 6 6 > 6 6 6 @ a 6 . . .     ",
". . . g g g g g g g g g 2 2 6 6 6 6 g g 6 6 6 g 9 y a a a a l c v n c U n K 1.n %.1.n G N _ { u.u.N u.*.*.b g ` ` g t q < 7 , ; 6 6 6 6 2 6 6 6 ; a . . .   .   ",
". . g s s g g g g g g d g 6 6 6 6 g g g g g d g 6 7 a z a a b n r.r.n n %.n ! v _ N n N n n _ _ _ ) u.g b g g g g i q q , , > 6 6 6 6 6 6 l a 6 6 . . . . . .   ",
". . . g g g g g g g 9 g g g 6 g d g g g g g g g g b a a a c %.1.! ! n 1.n n U ! n N N N G G u.u.u.u.+.M m g g g g g q t , > > 6 6 6 6 8 7 8 2 6 ; 6 . . .       ",
"  . . $ X g g s g g g g 9 9 9 g g g g g g g g g b b p.*.p.u.I 1.r.s.s.n ! n U v N N U n r.9.1.u.u.p.g g ` ` g g g q t q q 6 6 6 6 2 2 , 6 6 a O 6 > ; . .       ",
"  . . g g g g g g g g g g g f g 9 9 g g g g g g g u.p.p.u._ 1.u.n r.n v U n n U N { n { %.1.u.+.m b :.u.+.g g g g g q q q 6 6 6 6 6 > > 6 7 2 > 6 O X . .       ",
"  . . . . g $ g s g g g g g g g g g g g g g g g u.u.u.u.u.u.u.N ! v { U v ! ! 2.N G K %.r.{ n b :.u.P g g g g g g q q , q , 6 6 6 , > 7 6 6 6 6 7 & X ; . . .   ",
"    . . . . g $ g g g g g g g g g g g g g g g g *.u.u.u.u.u.N N v ! U n ! v v c f.g { %.G G *.u.:.g g g 3.p.+.S g q c , q , > 6 6 6 q 7 6 6 6 > > O . > . . .   ",
"    . . . . . $ g g g g g g g g g g g g g g g g p.f.1.f.u.1.u.N N N G n n n ) n N m g g b b :.1.) g p.p.+.p.9.p.q k *.q q , > 2 6 6 6 7 7 6 6 6 6 . 6 . . . . . ",
"      . . . s g g g g g g g g g g g g g g b g g g g u.u.L :.g :.N u._ S b _ N n m g ` ` g g g g g p.+.+.*.f.Q k.p.+.h q q , 6 6 6 6 6 z a a 6 6 6 6 . . . . . . ",
". .   . . s s g g g g g g g g g g g b b g g g ` g g g u.g b N ) G 1.b *.r.) g g g g g g g g g g b p.*.z.G n.n.n.3.9.9.2 > > , q 6 2 a a 7 6 6 6 2 2 . . . . . . ",
".   . . . . g s g g g g g g g g b g g b g ` g g b ` ) O.g g g g b b G _ *.g g g g g g g g g g g g z.*.*.n.n.n m.+.m.n.p.6 6 6 2 2 a a a 0 a 6 6 O & 2 . . .     ",
"    . . . . X $ s g g g g g g b b g ` ` g b g g g g g b g ` ` g b g g g g f d i i f g g g g g g a.) m.m.N N N N n.*.m.j 6 6 6 6 6 l 6 6 7 a 6 6 . 2 O o . . .   ",
"  . . . . . $ g g g g g g g g g ` g ` g g u.g ) g b g g g g g g g g f f d t i i d g g g g g g u.m.m.m.N N N N N n *.z.1.6 6 6 6 a 7 a 9 a 7 6 6 6 6 . . . . . . ",
"    . . . . . $ g s g g g g g ) g g u.u.u.u.u.g ` g g g g g g g f g d i t 7 , q , r i d f u.u.m.m.m.U N N N N N n.*.1.f.6 6 6 6 6 9 a a 7 6 6 6 6 O . 6 . . . . ",
"      . . . . g $ g g g g g g g g u.u.u.u.u.u.u.` g g g g g g f f f t r , , , > y f d d g u.m.m.m.*.*.N N N N m._ 8 6 2 > 6 6 6 a a a 7 6 6 2 6 6 6 6 . . . . . ",
"  . . . . . . . $ g g g g g g g u.u.u.u.u.u.f.g g g g g g g g d t f , , , 6 6 q 6 , > < > #.u.b.Q M.g.M.U 1.{ %.6 6 ; > 6 z 6 a 0 a a a a 2 6 6 6 6 . . . . . . ",
"        . . . s g g g g g g g b a u.u.u.u.u.f.g g g g g g d f t f r q 6 6 6 q 6 2 6 , , < w.u.u.1.n.{ K l M.6 j l Q &.6 7 7 7 a z a 0 a 2 2 6 6 6 ; - . . . . . ",
"  . .   . . g s g g g g g g ` a a a u.1.u.p.f g g g g g d d f 9 q q > > q 6 6 6 6 6 6 > , 6 > 6 6 6 6 &.} k.! l 6 6 6 a a a a a 7 7 a 0 6 6 6 6 O . 6 ; . . . . ",
"  .   . . . $ g s g g g g g g a G L I a l c g ` ` g g f d y t t q , > q > 6 6 6 6 6 6 > > > 6 6 6 6 6 6 6 8 6 } &.> a a a a a a a a 9 a a a 6 6 6 6 O . . . 6 . ",
"      . . . g X % g g g g a a a l a c a L I g g g g f d 9 8 d > q , q 6 6 6 6 6 6 6 u 7 a 6 6 6 6 6 6 6 6 6 6 a a a a a a a a a a a a a 7 2 6 6 6 6 6 O ; - O . ",
"    . . . . . $ f g g g g a a a a a d a a g g d i t t i 8 d ; > 6 q 6 2 6 6 6 6 6 6 > a 7 a a a a a a 6 6 a a a a a z a a a z a a a a z 7 z 6 6 6 6 O 6 6 . 2 . ",
"      . . . g g g g d g g g a a a a i l g d f i 8 9 6 8 q 6 6 6 6 6 > 2 > > 6 6 6 6 6 6 7 a a a a a a z d z a a a a a a a a a a a a z 6 a a 6 6 6 6 6 6 . . . . ",
".     . . g s g a g g g g g g g f g d g i i e , , , q 6 6 6 6 6 6 6 , 6 2 > > 7 6 6 6 7 a a a a a a a a a a a a a a a a a a a a a a a a 6 2 6 6 6 6 6 . . . . . ",
"    . . . g g a g g a g d g g f i g t g g , , > > > 6 > , > 2 6 6 6 6 6 6 6 8 7 6 6 6 a u a a a a l a u a a l a a a a a a u a a a a 0 a 6 6 6 6 6 6 ; 6 . . . . ",
"  . . . w g $ $ g a a a s d g d t g q g q t > ; > > q > 6 6 6 6 6 6 6 6 8 8 7 6 6 7 a u a a 9 a a 0 a a a a a a a a a a a a a z 0 a a a 6 6 6 6 2 + 2 6 6 . . . ",
"    . . g g g g a a y a z a g t t d q g t > 6 6 6 6 6 6 2 6 6 6 6 6 6 6 a a a a a a a 7 6 a a a a 0 a 9 a a a a u a a a 0 7 a 6 0 u 6 7 a 2 6 6 6 6 2 O O o . . ",
"  . . . g s g s a y y a $ g g : g q q q q : , 6 6 6 6 6 6 6 6 6 6 6 6 6 u l 7 p a 7 a 9 a a 6 z 7 9 a a 2 a a a a a 7 7 a 9 a a 6 9 a a 7 6 2 6 6 6 ; ; 6 . . . ",
". . . . $ s d g a a $ s f g s s q + q : : q & ; 6 6 6 6 & ; 6 6 6 6 a a 7 a a 9 a a a a a 6 6 6 6 6 6 6 2 9 a a 9 a 7 a 7 6 a 6 9 7 6 6 6 6 6 6 6 6 6 O 6 . .   ",
". . . . $ s g $ a @ y g . g $ $ : q : = * X + > & ; & ; 6 6 > > 6 7 6 6 a y > a 7 6 a 7 & ; 6 6 6 6 6 2 6 5 1 2 a a 6 a ; 6 6 6 6 6 6 6 6 6 6 6 6 6 O 6 - . . . ",
". . . $ g $ s g s s g . . . + $ g . q . X - . + 6 # & ; . + 6 - ; 7 7 4 a 6 6 2 6 6 & ; 6 6 6 6 6 & 2 & & 2 2 2 2 6 ; 6 6 ; 6 6 6 6 6 6 & 2 2 6 6 6 # - . . .   ",
"  . . s $ g g . g X . . . . . $ . . . + . . . X O & . + q , 6 6 2 2 2 ; 6 O 6 6 ; & & ; . O 6 # & & & # & . X O & & & ; + 6 6 ; 2 6 & ; 6 6 6 6 - # & . . . . . ",
". . . . g $ . . . s . . . . . . . . . . . . . . . . o ; . . X O - ; 2 O a 6 6 6 6 6 . O 6 6 & # ; . O X . O > 6 6 > o ; 6 O 6 6 ; & & ; . + 6 # # ; . . . . .   ",
". . . . . . . . . . . . . . . . . . . . . . . . . . O . . . . . O 6 + 2 6 . 6 O 6 X + 6 . . . . o X X . o . . . . X & O . 6 O 6 ; 6 . O 6 6 6 6 X . O 7 . . . . ",
". . . . . . . . . . . . . . . . . . . . . . . . . . . . . . . . O 6 6 6 . . . 6 O 6 6 . . . . . O . . . . . . . . X . . . . 6 . 7 . O 6 . . X . o ; . . . . . . ",
"  . . . . . . . .   . . .   . . . . . .   . . . . . . . . . . . . . . . . . . . X & . . . . . . . . . . . . . . . . . . . . . O O 6 6 . . . . . O . . . . . . . ",
"      . . . . .       .       . . . . . . . . . . .     . . . . . . . . . . . . . . . . . . . . . . . . . . . . . ; 6 . . . . . O 6 . . . . . . . . . . . . .   ",
"  . . .           . . . .       .       . . . . . . . . . .       .       .     . . . . . . . . .     . . .   . . . . . . . . . . . . . . . . -   . . . . .     ",
"          . .             . . . .               . . .       . . .     . . .         . .   . .   . .           . . . . .   . . . . . . . .   .     .   . . .     ",
"                                    . .                                       . .         . . . . . .         . . . . . . . . .     . . .               . . . . "
};
