/* XPM */
static char *_c839a7f4e9d409bc63fda56a6e2fc7bF7tlrZQt1PveakeD[] = {
/* columns rows colors chars-per-pixel */
"80 80 135 2 ",
"   c None",
".  c #0F0F2E",
"X  c #0F102F",
"o  c #10112F",
"O  c #070736",
"+  c #080736",
"@  c #090936",
"#  c #0F0B38",
"$  c #100B37",
"%  c #110B38",
"&  c #1A0F3A",
"*  c #0F1130",
"=  c #101230",
"-  c #141A35",
";  c #1E103A",
":  c #151F38",
">  c #21123B",
",  c #2B163D",
"<  c #35193F",
"1  c #162139",
"2  c #18243B",
"3  c #1A293F",
"4  c #0E0E46",
"5  c #100E47",
"6  c #151047",
"7  c #171148",
"8  c #1E1349",
"9  c #121254",
"0  c #1C1556",
"q  c #22154A",
"w  c #371940",
"e  c #3E1C41",
"r  c #311A4D",
"t  c #241858",
"y  c #2C1B58",
"u  c #331F5B",
"i  c #152646",
"p  c #1C2D41",
"a  c #213C4A",
"s  c #263F58",
"d  c #161660",
"f  c #1A196A",
"g  c #1C1C74",
"h  c #1E1E7C",
"j  c #271E6D",
"k  c #392267",
"l  c #372471",
"z  c #3C2672",
"x  c #243574",
"c  c #461F42",
"v  c #4F1F45",
"b  c #501E45",
"n  c #462043",
"m  c #4F2345",
"M  c #502145",
"N  c #432251",
"B  c #4B2553",
"V  c #44245E",
"C  c #412772",
"Z  c #294B52",
"A  c #2D5458",
"S  c #315E5E",
"D  c #386F68",
"F  c #468E7B",
"G  c #202085",
"H  c #282386",
"J  c #22228C",
"K  c #3C2A82",
"L  c #362889",
"P  c #392A8A",
"I  c #232391",
"U  c #292591",
"Y  c #262598",
"T  c #29299F",
"R  c #2929A3",
"E  c #2C2CAD",
"W  c #2E2EB0",
"Q  c #2E4E82",
"!  c #315088",
"~  c #36559B",
"^  c #3A6590",
"/  c #3243A6",
"(  c #3444AC",
")  c #3858A5",
"_  c #3B5BAC",
"`  c #3647B0",
"'  c #3D5DB0",
"]  c #436FAF",
"[  c #436FB0",
"{  c #4370B0",
"}  c #4C9D87",
"|  c #468392",
" . c #4EA086",
".. c #54AF92",
"X. c #57B692",
"o. c #58B692",
"O. c #4880B0",
"+. c #519BB0",
"@. c #55A6AD",
"#. c #5CBDA2",
"$. c #57A7B1",
"%. c #57A8B2",
"&. c #5AB2B2",
"*. c #5DBBB2",
"=. c #5FC1B2",
"-. c #63CFA2",
";. c #61D0A2",
":. c #64D2AE",
">. c #67DDAC",
",. c #60C6B2",
"<. c #66D4B3",
"1. c #67D9B3",
"2. c #67DAB2",
"3. c #67DAB3",
"4. c #67DAB3",
"5. c #68DEB2",
"6. c #69DEB3",
"7. c #68DCB3",
"8. c #69E1B2",
"9. c #6AE0B3",
"0. c #6BE3B3",
"q. c #6BE5B3",
"w. c #6BE6B3",
"e. c #6BE4B3",
"r. c #6DE8B3",
"t. c #6DE9B3",
"y. c #6DEBB2",
"u. c #6EEBB3",
"i. c #6FEBB3",
"p. c #6EEDB1",
"a. c #6EECB2",
"s. c #6EECB3",
"d. c #6FECB3",
"f. c #6EECB4",
"g. c #6EEBB3",
/* pixels */
"                                                                                                          m m m   m                                             ",
"                                                                                                        m m m m m m                                             ",
"                                                              m                 m                         m m m                                                 ",
"                                                          m           m m   m                       M       m                                                   ",
"                                          m       m     m     m   m m     m     m   m                   m m m                   m                               ",
"                                      m       m             m m m m n m m n m m m n   m                         m m         m   M                               ",
"                                    m     m n m   n   m   m m m n m m n m m m n m m m m m m v                             m m   m   m                           ",
"                                        n n m   n n m > m n n n n m ; m m ; n n c & m v c b m m m                         m m m m m m m                         ",
"                              e       e n m > m m ; m n m m m n > m m > m m m ; m m m m m m m m b m m m m                 m m m m m m m                         ",
"                            e e   ; n n ; > m n ; m n @ m # n q n m @ e & @ ; & e @ n : @ @ m m m m m M   m m               m M m m m m                         ",
"                        b   v ; m m m $ m n @ M > m @ @ @ N > q m @ @ @ @ 9 9 l f 9 @ e ; @ n M m < n m m m m m         m   m m m @ m m m                       ",
"                    b   m M ; v m @ > > n @ @ @ n @ @ @ 4 9 # U @ @ 5 9 9 f f 9 9 d d 5 & < V e n # @ m m m m m m       m   m m m @ m m m                       ",
"                    m m m m M m @ @ @ m @ @ @ @ @ > @ @ 4 Y @ G & @ d f h E E E W E f f l e & y V 0 @ @ < n m m m m     m   m m @ m @ m m                       ",
"                  m m m m m m @ @ @ @ @ @ @ @ @ * > % @ I J @ E @ G 9 R R E W E _ _ E Y g g R 9 % k c @ m n m m m m m     m m M m @ @ @ m                       ",
"                  m m m m m @ @ @ @ O m @ @ @ @ @ ; @ ; G R W W W G E R E E ' { E E ' ( _ ! x E T T 9 9 @ @ w n m m m m   m   m m @ @ @ m                       ",
"                m m m M m @ @ m m @ m c 8 @ @ @ @ @ @ @ R W W W W W R 9 W { O.' 2.1.' O.] E W ) ) G 9 @ 6 0 @ m n m M m   m   m m @ @ @ m m                     ",
"              m   m m m m @ m ; > ; m > ; ; @ @ O @ @ O 4 W W W W W E W ` ` <.w.[ [ 6.,.<.6.=.' ] ` R R 9 9 t @ c M m m m m   m @ @ @ m m m                     ",
"            m m m m m # @ @ @ @ m n m % > n m @ @ @ @ G 4 W W W W W R 9 W 8.<.W i.i.r.r.,.+.[ <.<.W ' _ R R % @ @ n m m m m   m m @ @ @ m m                     ",
"            m m m m m @ m @ m m m m m m m ; # & @ @ @ G 9 G E W W R R E $.W W i.i.i.i.i.i.d.f.<.1.' ` ` E 9 R t @ @ m m m m m m m m @ @ @ m   m                 ",
"          m m m m m @ @ @ m m m m     m m m # e & @ @ R r G I W 4 I f.R f.p.y.i.i.-.i.f.d.d.i.i.f.e.<.' _ E O E 8 @ @ M m m m m m @ @ m m m m   m               ",
"      v m m m m m @ @ @ m m m m   m m m   m ; e # @ 4 n @ R R E R i.i.i.Q i.y.-.i.i.i.-.o.o.f.i.f.f.0.<.[ W W R E n @ @ m m m M m @ @ @ m m m m m               ",
"      m m m m m m m @ @ m m m   m m m m m e , e @ 6 6 @ I g E _ f.( ) ~ <.<.-.-.i.A o.X.-.p.f.i.i.f.i.0.' W W W E @ c @ e m m   m m @ @ @ m m                   ",
"    m m   m m m @ @ # m m m   m m   m m m n # # ; e G @ g _ E i.i.[ O.1.<.<.f.S X. .F Z p p ;.F o.i.p.%.<.' W ' E E R u @ m m m n m @ m @ m m                   ",
"    m m m m m m m m m m m m m m     m m m % @ m @ G @ 9 ' f.i.i.i.f.f.f.W | s *.6.* p - d.} 0.o.o.i.>.~ :.` W ' W W W u @ m m w n M @ @ @ n m                   ",
"    m m m m m m m m m m m m m     m m m M > m @ @ @ 9 W { i.W <.$.<.1. .= -.= = o = = = o X 2 = F ....@.i.<.<.W O.W R I @ @ m e ; m @ @ m m m m m               ",
"    m m m m m m m m m m m m     m m   m M @ @ @ 9 9 W ` <.i.$.;.W #.F = = p $ = = = = = o X * = = f.X.o.i.i.<.<.{ W W I 9 @ % ; e m @ @ @ m n                   ",
"  m m m m m m m B m m m m m     m m m m e e + f f 0 R W i.i.p.X.-. .* - = o o o = * = = o = . = - p p.F i.i.f.i.W ' R R f @ $ % e @ @ @ @ > m   m               ",
"  m   m m m m m m m   m m       m m m e @ % f h E R @ p.i. .i.S X.* * = = o o o = = = o = = = = = 2 = } X.i.f.q.<.` W E f @ @ @ @ @ @ @ @ @ m m   M             ",
"  m   m m m m m m m           m m m m @ @ z h E R R ` f.^ Z f.3 a o o o = o = = = = = = = = = = = o o 3 o.p.f.p.8.W ' W 9 9 @ # m @ @ @ m @ m m m m             ",
"  m   m m m m m m m           m m c m @ j C W E i W ' y.S p p.* 1 Z o o X o = = = = = * X = o o $ o o - o.o.f.f.%.' ` W R 9 @ n m ; @ m e @ m m                 ",
"      m m m m m m m         m m c n @ @ K E W / ` ' =.f.p f.* * X o $ o = o o = = X = = o = = o X o o - o.o.i.f.W 7.W ' W 9 # > q ; ; m m @ m m                 ",
"          m m m m         m   m m @ @ @ E R R W %.' f.W 3.* * * = = = = = = = = o o o = = = o X X o X 2 2  .o.f.f.&.1.` E 9 4 % > @ e > > @ m m                 ",
"    m       m               m m ; @ @ @ W @ W $.W 8.p.T ;.* * X o = = = = * o = o o X X = = * . = = = = - 1 o.d.d.f.r.W E 0 4 O G @ @ B > m m m m m             ",
"        m m m             m m m m @ @ R E W W ` E f.;.A F - * X = = X = = o = = o X o - = = o o o = = = = = o.d.f.d.%.W E + G @ @ @ @ @ ; @ m m                 ",
"                m m   m     m m m @ @ R E E ` ` f.f.p.1 ;.= : X = o = o * = = o $ X = o X X o = = = * = = = o.i.i.8.` W W R @ O W @ G m B @ m m                 ",
"                    m   m m m @ @ @ @ W W W W &.E f.S p.3 = X * o = = o = = = = = = o . X X = = o o o o = = i.i.1.<.' W / @ O W W W m H @ @ M m m               ",
"        m               m m m @ @ m R W W W <.W 3.f.f.f.= = = * = = o X . = o = = X X = * * = o o = = = = p f.f.p.i.<.W E W W W W W W P > @ m m m               ",
"    m                 m m m m @ @ @ R R W W W W f.f.y.* = = - * = = o o o = = o X . = * * = = = = = = = - p p.i.f.f.$.$.W ` W W W W @ @ % @ m m                 ",
"  m     m   m           m m m @ @ @ R d W W W f.f.y.;.f.= = = = = o - X o o o = = * * = = = = o = = = = = 2 p.i.i.i.f.W $.W W W W @ 4 @ m @ m m                 ",
"      m m m   m   m       m m @ @ B R d W W ` W y.S y.p 3 = = = = = o o o X # = = = o = o = * = = = X = = 2 f.f.i.i.f.f.%.W W R I @ n @ @ @ m m                 ",
"    m m m m m m       m m m v m @ 9 R J R $.W W <.w.f.i S X = = = = * = = = = = * * = = = = = = = = - = 2 2 f.p.i.i.p.W W W W J 5 # @ @ @ m m m m               ",
"      m m m             m m m @ @ J R G R R W %.*.f.f.f.X.* = = = = o = = = * = = = = = = = = = = Z 2 = 2 p.f.f.<.i.W ` W W @ @ @ @ m > > m m m                 ",
"m       m               v m m @ @ G @ W T E E 1.` 1.f.y.X.X.= = = = = = = = = = * = = = = = * = 2 S S 2 Z i.f.*.8.e.W E W d 4 G G @ m m m m m                   ",
"    m m m               m m > @ @ % W W E R E @.W <.<.f.p.p.p.= = o = = = = = * = = = o * : D 2 = * = Z i.f.=.W W ` W @.$.@ @ @ ; @ @ m m m m                   ",
"            m m       m m m m @ @ W W W W W E d T %.&.=.f.f.f.* = o = = = = * * = = * = 1  .p = = 2 Z r.i.[ ` 8.f.$.W E E @ G @ e @ @ m m m                     ",
"                      m m m m @ 4 W W W W W E 4 T @.E i E f.f.f.p.- * * * = 2 * = = * = = X * * = x ' ' 1.f.y.<.W W W @ + @ @ @ * > m   m m                     ",
"                      m m m m @ @ @ W W E 4 @ @ R R E } %.&.W ` p.f.p - Z p * * X - = o = o = =.R W W W W W E E W W R 9 @ @ @ @ 2 -   m m                       ",
"                      m m m @ @ @ R G W W 4 G # 4 O 9 4 R ` W &.<.f.p.Z Z Z Z Z Z 3 Z Z Z Z p.` <.0.%.W W E E E E W R @ @ % m m m   m m m                       ",
"                    m m m m - # @ G G E W W G G @ @ G @ R E $.%.W <.i.W 8.f.Z *.f.8.e.&.W ' W <.<.+ G W E R 9 @ R R G E T > @ % m m m m                         ",
"                    m m m m @ @ @ @ W W W W E G @ @ @ G E E E W %.i.i.i.q.t.q.<.6.W *.&.<.8.$.9 @ G G J 4 9 G E R @ @ n e m m m m m m                           ",
"                    m m m m ; @ @ @ @ W W W @ @ @ @ @ @ 9 W W W i.i.f.i.f.1.` <.q.$.<.<.W W 9 9 @ @ @ 4 @ G G @ @ @ # m m m m m m m                 m           ",
"                    m m m m m @ H @ @ @ W @ 4 @ @ O @ @ I W W ` W i.f.f.R E W W W W W E E E @ R R @ @ @ @ @ @ # O # e > @ % m m m               m               ",
"                    m m m m @ ; @ @ @ G J @ @ @ @ @ @ R R 9 %.W W W i.W ( E E W W R 9 9 R E E W R @ @ @ @ @ @ @ % m m m m m m m   m m         m     m   B       ",
"                    m M m m @ @ m > @ @ @ @ G J @ @ @ R R E W W %.%.&.d R W R I Y E E E R $ @ @ @ @ @ @ @ @ @ @ @ % m m m m m m                   m m m   m     ",
"                    m   m m @ m @ > m @ M @ ; @ @ @ @ @ J E W W W W ( G $.%.W @ G @ @ @ @ @ @ + e @ @ @ @ ; M m m m m m     m m                 m m m m m m     ",
"                    m   m @ @ @ @ m m > @ @ @ @ @ @ @ G 9 O W E W R W W W W W W G 4 @ @ @ @ @ + > + + ; c M m m m m     m m m                     m m m         ",
"                    m   m m m @ @ M m M m & M @ % @ > R @ G G E 4 9 J G W W W @ G e @ @ @ @ m c > # # n > % > m m m   m m                   m       m           ",
"                    m   m m @ @ @ @ m m M M m > > ; @ & @ T R E O R G W W W W W G @ $ M @ M c m m m n m > > m m     m m m       m   m m m       m m m           ",
"                      m M m @ @ @ @ m   M m m m m n * @ @ @ @ 9 + R R G W W W @ @ c & > $ > m m m m m m m     m m m m       M M m m m                   m m     ",
"                      m   m m @ @ + m m M M m m m m n m @ @ @ & + G + + @ E @ J H c M m n m > > m m m m m m m m               m m m m m m m m                   ",
"                      m   m m @ @ @ m m     m m m > m m m # @ ; @ @ @ G G J @ @ > m m b m v m                             m m m m m m m m m m m                 ",
"                      m   m m m @ @ m m m M   m m m m > > ; m > $ # @ @ @ 5 @ L P > > v m m m m m m     v     m m m m m m m m   m m m m m m m m                 ",
"                      m m m m m @ @ m m m   M M m m m m m n m > % % ; ; @ @ n n m m m m m m m m     m m m m m m m m m m m m m m m m m m m m                     ",
"                        m m m m @ @ + @ @ m       m m m M m m m m m > $ $ $ > M @ @ m + m m m M m m m m m m m m m m m m m m m m m m m m m                       ",
"                          m m m m @ @ m m M m m     M m m m m m m m m m m n > * @ m @ @ @ @ m m m m m m m @ m m @ m m m @ @ m m m m m m m                       ",
"                          m   m m m @ @ @ @ @ m m m     v m m m m m m m m m m m m m m m @ @ @ @ @ @ m @ @ m m @ m m @ m m m m m m m m   m m m m                 ",
"                          m M m m m m m @ m @ @ m m m m     v m m m m m m m m m m m @ @ @ @ @ @ @ @ @ m @ # @ @ m @ m m @ m m m m     m m m                     ",
"                            m m m m m @ m @ m m m m v m m           m m m m m m m m @ @ @ @ @ m m m m m m m m @ @ @ m m m m m m m   m m                         ",
"                              m m m m m m m @ @ m m m m m m                     m m m m m m m m m m m m m @ @ m m m m m m     m m m m m                         ",
"                                m m m m m @ m @ @ * m m m m m                           m m m m m m m m m m m     m m m m m m m                                 ",
"                                    m m m m m @ m @ m m m m m m                                         m m m m m m                                             ",
"                                      m m m M @ @ m @ m @ m m m               m                                                                                 ",
"                                          m m m m m m m m m               m                                                                                     ",
"                                              m m m m m m               m     m   m                                                                             ",
"                                                  m m m m m m               m m m   m                                                                           ",
"                                                          m m m           m m m m m m                                                                           ",
"                                                                            m m m                                                                               ",
"                                                                      m       m                                                                                 ",
"                                                                          m m m                                                                                 ",
"                                                                                  m m                                                                           "
};
