/* XPM */
static char *df84612423224e44a4f6f554c0426772aomYkVBS6lmhkjpP[] = {
/* columns rows colors chars-per-pixel */
"80 80 141 2 ",
"   c None",
".  c #0F0F2E",
"X  c #0F102F",
"o  c #10112F",
"O  c #070736",
"+  c #080736",
"@  c #090936",
"#  c #0F0B38",
"$  c #100B37",
"%  c #110B38",
"&  c #1A0F3A",
"*  c #0F1130",
"=  c #101230",
"-  c #141A35",
";  c #1E103A",
":  c #151F38",
">  c #21123B",
",  c #2B163D",
"<  c #35193F",
"1  c #162139",
"2  c #18243B",
"3  c #1A293F",
"4  c #0E0E46",
"5  c #100E47",
"6  c #151047",
"7  c #171148",
"8  c #1E1349",
"9  c #121254",
"0  c #1C1556",
"q  c #22154A",
"w  c #351540",
"e  c #371940",
"r  c #3E1C41",
"t  c #311A4D",
"y  c #241858",
"u  c #2C1B58",
"i  c #331F5B",
"p  c #152646",
"a  c #1C2D41",
"s  c #213C4A",
"d  c #263F58",
"f  c #161660",
"g  c #1A196A",
"h  c #1C1C74",
"j  c #1E1E7C",
"k  c #271E6D",
"l  c #392267",
"z  c #372471",
"x  c #3C2672",
"c  c #243574",
"v  c #461F42",
"b  c #4E1E46",
"n  c #501E46",
"m  c #462043",
"M  c #4F2345",
"N  c #502145",
"B  c #432251",
"V  c #4B2553",
"C  c #44245E",
"Z  c #412772",
"A  c #294B52",
"S  c #2D5458",
"D  c #315E5E",
"F  c #386F68",
"G  c #468E7B",
"H  c #202085",
"J  c #282386",
"K  c #22228C",
"L  c #3C2A82",
"P  c #362889",
"I  c #392A8A",
"U  c #232391",
"Y  c #292591",
"T  c #262598",
"R  c #29299F",
"E  c #2929A3",
"W  c #2C2CAD",
"Q  c #2E2EB0",
"!  c #2E4E82",
"~  c #315088",
"^  c #36559B",
"/  c #3A6590",
"(  c #3243A6",
")  c #3444AC",
"_  c #3858A5",
"`  c #3B5BAC",
"'  c #3647B0",
"]  c #3D5DB0",
"[  c #436FAF",
"{  c #436FB0",
"}  c #4370B0",
"|  c #4C9D87",
" . c #468392",
".. c #4EA086",
"X. c #54AF92",
"o. c #57B692",
"O. c #58B692",
"+. c #4880B0",
"@. c #519BB0",
"#. c #55A6AD",
"$. c #5CBDA2",
"%. c #57A7B1",
"&. c #57A8B2",
"*. c #5AB2B2",
"=. c #5DBBB2",
"-. c #5FC1B2",
";. c #63CFA2",
":. c #61D0A2",
">. c #64D2AE",
",. c #67DDAC",
"<. c #60C6B2",
"1. c #66D4B3",
"2. c #67D9B3",
"3. c #67DAB3",
"4. c #67DAB2",
"5. c #67DAB3",
"6. c #68DAB3",
"7. c #69DDB3",
"8. c #69DEB3",
"9. c #68DCB3",
"0. c #69E1B2",
"q. c #6BE3B3",
"w. c #6BE5B3",
"e. c #6BE4B3",
"r. c #6BE6B2",
"t. c #6BE6B3",
"y. c #6DE7B4",
"u. c #6BE3B3",
"i. c #6DE8B3",
"p. c #6DEBB3",
"a. c #6EEBB3",
"s. c #6FEBB3",
"d. c #6DECB2",
"f. c #6DECB3",
"g. c #6DEDB3",
"h. c #6EECB2",
"j. c #6EECB3",
"k. c #6FECB3",
"l. c #6DE9B4",
"z. c #6EECB4",
"x. c #6EEBB3",
/* pixels */
"                                                                                                                                                                ",
"                                                                          M                                                                                     ",
"                                                                            b     M   N             M M M M                                                     ",
"                                                                        M     M     M N N     M       N M M M M M M N N                                         ",
"                                                                        M   M N M               b M M M M M M M N N M b n                                       ",
"                                                                      M M M M M M M   M   N M     M M M M M M M M   N M n n                                     ",
"                                                                            M M M           M   M M M M M M M M M M M M N N n                                   ",
"                                                                      M   M   M   M       N M M M M V N M M M M M M M M M N N n b                               ",
"                                                                      M       M M     b         M M M M M M M M M M M M M M M M n n                             ",
"                                                                                  M       M   N M M M M M M M M M O M M M M M N M b n                           ",
"                                                                                M         M       M M M M M N M M @ M @ M M M M M M M b b                       ",
"                                            M M M M M M M M M M                   b     M   N         M   M M M M @ @ @ @ M M M M M M M n b                     ",
"                                  M M M M M   b b b M M M M M M M M M M b b   M     M     M M N         M M M M M M @ @ @ @ @ V M M M M n n                     ",
"                                M M b b b M M M N M M M M M M M M M M N M M b M b M M M M               M M M M M M M M @ M @ N M M M M M n n                   ",
"                          M M M M M M M M M M N @ N M M M M M M M M M M M M M M M M M M M M M   M   M     M M M M M M M M @ @ @ @ M M M N b n                   ",
"                        M M b M M M M M N @ @ N @ @ + + M ; @ @ @ M M M > b M M M M M M M M M M   M N M       M M   M M M M @ N @ @ M M q M r b                 ",
"                      M M M M M M M M @ @ @ @ @ @ M @ > @ @ @ @ @ @ @ @ @ @ @ M @ @ @ @ @ M M M M M M M b b     M M   M M M @ > M @ @ M M > r r                 ",
"                    M M M M M M @ @ @ @ @ @ @ @ @ @ M @ J @ @ O @ @ 4 @ @ @ @ O @ @ @ @ @ M M > M m M M M M M b b M M b M M M > M @ @ @ M M b b                 ",
"                    M M M M M @ @ @ @ @ @ @ @ M M ; ; @ @ @ @ H E @ Q Q # H H 9 V @ @ M @ @ @ @ @ v v M M M M M n b N M b M v & @ @ @ @ @ M ; N w               ",
"                  M M M M M @ @ @ M M M M M M M M M @ @ @ @ Q J H Q Q Q Q @ E E E E E E @ @ @ @ @ @ M M M M b M M M M M b M N N M O @ @ > M m N n M   b         ",
"                M M M N @ N + M @ M M M M b N N ; * O H @ Q Q Q Q Q Q Q Q Q H U 0 f W W Q E E @ @ @ + @ r N M M N M N N M M # > m M @ M > % m r b   M N b       ",
"                N M M M M @ @ M @ M M n M N M M @ M O U Q Q Q Q Q Q Q Q W E E E Q Q Q Q Q Q W W Q L k + @ r M M M M M N M M > & > @ @ @ m M ; m m b             ",
"              M M M @ N @ M @ M M b N n M M M & @ @ @ @ @ Q Q Q 4 4 Q Q E W E &.Q Q Q Q Q Q Q O E Q x x $ v O > = m < M N ; v ; @ @ @ @ @ m > M m M   M   b     ",
"              M M M M @ M @ @ b b b   M M N N N @ ; H @ 4 @ Q H H @ W Q W W Q Q ' Q Q 1.Q ' Q Q E Q Q j g @ @ M @ % , ; $ $ M @ @ @ @ @ @ @ M > M v   N         ",
"            M M @ @ @ @ M O M M n N M M N M > @ @ @ J @ O @ H K # @ 4 9 #.1.&.Q Q k.Q Q *.' ' %.W ( W Q j g @ @ M % r r r & O O @ @ O @ @ M m M N N M b b       ",
"            M M @ M @ M M M M b n N M M M N > % @ @ @ @ @ @ @ O 4 R E E Q ' =.1.k.l.g.6.Q s.Q Q %.' p E W g 9 @ @ > @ # ; O O @ @ @ # @ m > ; M m b   b         ",
"          M M M M @ @ M M b M n b M M > N m ; @ @ @ @ @ O O O O O E #.&.1.1.z.g.D h.g.g.h.g.g.7.] ] Q E E 0 9 + K r 6 O @ @ @ @ @ ; > ; @ M M ; m v b M   M     ",
"          M M M @ M M N M N b M M M M M m = @ > @ @ @ @ O O O H 9 E Q *.1.p.z.z.g.;.h.k.D l.;.g.g.-.] ' O E Q 9 O H 6 4 @ @ @ @ @ @ % @ @ @ m M M b b           ",
"        b M M M M M M M M M b b M M > M M @ ; E H @ E E O O H O 4 | p <.z.g.z.a a g.= k.g.- S R Q l.l.g.h.Q ' Q 9 @ @ m R H H O @ ; @ @ @ @ @ m > M w           ",
"        b M M M @ M M M M M M M M M > N @ @ @ @ 9 K E E K 9 Q E E &.W g.z.o.o.D 3 = = = a ;.G ;.3.a D / h.k.2.{ ] h K @ t 9 4 4 E H K 4 4 @ M M M n b M   b     ",
"        M M b M M M M M N b M M N m ; @ @ @ E H @ Q Q 9 Q Q W E ' *.g.g.g.o.* * = = = = = = - o = s.a A | k.g.g.g.` h W H H Q Q Q E K T 9 B % M m M n   M M b   ",
"        M M M   M M M M b N M M M M M @ @ @ E H Q Q Q &.Q Q Q &.Q Q g.g.g.* * * = = = = = - = = = = g.g.h.h.&.Q g.W E W K Q Q Q Q Q @ @ % > m N m M N b         ",
"        M       M M b b b M M M M > ; ; & 9 W W Q Q Q Q ' Q Q &.*.' g.o o = = = = = = o # o = = = = o 3 D O.;.1.h.l.] W Q Q Q Q Q Q Q H Y q q m m M M M   N   M ",
"                    b   b M M N M $ # # @ O O 4 Q Q &.Q Q s.&.Q 1.g.g.o o o = = = = = = o o = o = = 1 s o.;.Q &.l.h.k.E 4 Q Q Q Q Q @ = @ M m > m m M N b       ",
"                        b M M M M $ $ @ H R E 9 E Q &.Q s.s.s.1.g.g.- $ o = = o = = = = o o o = = = A X o ..$.1.k.{ ( l.U E Q Q Q H K @ @ @ M M M M M M b b     ",
"                        M N M M > ; @ @ O E H K Q ' *.s.s.s.s.s.g.a = - = = = * = - o = o o o o = o = o o o G 4.h.+.` s.k.E E W E W 9 9 4 @ O M ; M v M b b     ",
"    M                   M M M M % ; @ H @ H Q H Q H f Q s.s.s.Q A : * = = o = = = X o * X = = = = o = = = - o ..h.2.^ l.E W 9 Q 9 E E g 9 @ r > m m M b M   b   ",
"      M     M   M       M M M m # @ O H @ Q Q Q Q %.E ) E l.q.u.A A * = = = * = o o o o = * o = = = = = = = o o W 1.2.! k.&.Q ' Q W R j 9 @ ; M M M M b M   b   ",
"  M     M     M M b     M N M m $ @ 4 K Q Q Q Q Q %.Q W W 3.l.l.A 3 * * = o = = X o o o = = o * = = o o = = a :. .1.1.s.l.Q u.' } Q Q W g 9 @ M 8 M m M   b     ",
"  M   M M M           b M M M > > m @ @ @ Q Q Q Q Q E W Q ' w.A A X 2 = = = = = X o o o o $ = o * o o = = = $ o d y.;.g.k.Q 1.1.+.] Q W g 9 ; M m M M M M b M   ",
"N M M M M M M   M   M b M M N @ M m P @ K @ Q @ Q @ U Q Q 1.1.=.A * * = = = = = o = o = $ o o o = = = = = = = o =.D ;.;.h.l.Q y.] } W Q 9 x ; 8 m m N b N       ",
"      M M M           M M M M @ @ M I > J @ H H H H U Q Q t.9.g.A X = = = = = * = = o * = = o o = o = = = = = = 7.o.k.s.s.h.h.{ 9.W ` W 9 g r M m M M M   M   N ",
"M   N   M   M         M M N N M @ M > M m m @ < 4 @ Q E Q &.Q q.3 - = = = = = * = * X X = * . o o X = = = = = = o ..S s.;.h.h.{ 6.W ` W 0 9 O M q M m b         ",
"M       M M     b   b M + + M @ M M > M N ; $ # O O Q 9 Q 1.=.w.A = = X X = = = o * = X . = = * o = = = = X = o a G O.h.s.l.h.7.` ` W g f O r M M M N N         ",
"            M       b M @ @ M @ + M M n N > M @ @ @ W 9 Q 1.*.*.A X o = = = = = = = * = . X - = = $ o o o o o o - A O.;.s.h.l.<.+.( T g 6 < > M M N N n   M     ",
"                    M M @ @ @ @ N M M b m # @ @ @ @ E E W Q 1.Q A = o 1 = o = o = = * * X X = = = o o o o o o o k.a :.O.l.s.<.1.[ ` h x & > @ M < N   n         ",
"                    M M @ @ @ @ M M M M M > M @ @ @ # Q W W q.] A = = | - = = = = = = * X X = = o = o o = $ X X | a s.O.k.g.@.7.W ~ h r < O @ M n N   b         ",
"                    M M @ @ @ M M M M M > M m M @ @ O W @ 9 %.W g.= = a F * = = o = = = o o o * = = o o X X X 3 q.:.k.k.l.k.} =.Q c W $ C m M M N n b           ",
"                    N M N @ @ M M M M b > M M v @ # @ W E 9 9 1.) <.= = 2 = = = = = = o = = o = o o o o o o = - O.G s.s.s.1.1.` _ E 9 u < N M N N n b           ",
"                    M M M @ @ M N n M   b M N > > < @ R E @ O 1.1.W = = = 2 = = = o = o = = o = o X o o $ - = G O.O.s.s.s.6.1.[ _ E ; l M N M N M N b           ",
"                    M M M @ @ M M n M   M M M $ + @ @ @ @ O H @ q.W c 2 = D A = = = = = o = = = = = = o 2 a l.X.k.h.k.s.y.] W ' H E l 0 @ < M M b b             ",
"                  N M M M @ M M M M n b M M v # @ @ @ @ @ @ H H &.Q ] A = D 2 - o $ = = o = = = = = = o = h.o.X.,.h.h.y.1.' ] E 9 9 m @ @ m M M n b     M       ",
"                  N M M M M @ M M M n b M M M m & # @ @ @ 4 K Q Q Q ] s.A 2 = = o o o o = = = = 2 - = a ..G O.#.^ %.q.1.] ' ` W @ 9 @ @ M M n M b b       M     ",
"                  M M M M @ @ M M M n b M M > > v @ @ @ @ @ 4 W Q Q 6.k.g.A 2 2 - o - o = = = - 2 o.O.O.O.s.s.s.1.1.] } ` W E 9 6 @ M < M M n M   b   M     M   ",
"                  M M @ M @ M @ M M n n M m > % N ; @ @ @ H 9 E Q Q l.} u.s.h.2 2 2 3 a = = = 1 ..O.o.g.k.s.l.1.' ] Q Q W 9 E 9 0 O v m M M M b b     N   M M M ",
"                  M M @ M @ M M M N n n M n M > M M @ @ + H H 9 W Q l.' <.h.h.g.h.k.g.k.g.O.O.O.O.k.g.s.s.s.2.1.Q Q Q Q @ E % y @ e N M M M M b b   b N M M M M ",
"                  M b M @ @ @ M M M M b b M M M M M @ @ # @ W @ W W 1.q.Q -.s.s.s.s.l.h.s.s.s.s.s.h.l.g.t.g.1.Q ] ] Q E W y + @ M v M M M M   n           M M M ",
"                  M b M @ M M @ M M M b b M b M M N @ $ O @ E E W W Q h.Q q.1.s.s.s.h.g.6.s.s.s.s.Q *.q.1.Q } +.Q Q W W 8 @ @ v m M M M M M n       M   M   M   ",
"                  M M M @ @ M M M M M b b M b M M M $ M # @ @ E W Q Q &.' q.s.s.h.s.g.d.2.7.h.s.*.6.] Q ' ] Q Q Q W # v @ + v M M M M M b   b       M       N M ",
"                    M M M M @ M M M M n b M M   M N M M r $ @ H E E Q Q Q Q Q s.h.h.&.9.] ' %.u.6.Q ' ] W E Q E W E r @ @ M M M M M M M b b                     ",
"                    M M M M N M M N M n N   M M b M N M > M m W @ 9 + W #.W ' Q g.Q &.Q Q Q Q Q ' ] Q Q W E U K i i @ @ M M M M M M   n b                       ",
"                    M M M @ M @ M M M N n   M M N b M M @ M r E @ + @ W %.Q Q Q &.&.Q W Q W W Q W Q E 9 g g 9 O @ @ r M N M M M   b n N N M                     ",
"                    M M M M M @ M M M M n b     M   M M % M N > % @ @ @ @ f Q Q Q Q ' Q * R + f 9 9 9 9 @ @ @ @ M M M M M M M M N M M   b b b M M M b b         ",
"                    M M M M M M M M M M n n     M M M M M M M @ M @ @ H @ 4 @ Q Q Q Q Q O O H 4 4 # @ + @ % % M M M M M M M b M b b M M M M M M b M M N b       ",
"                    M M M M M M M M b M M M n     M N M M M M % M @ @ @ O H @ K E Q Q Q Q O @ O # ; m # O % > r e M b n M M M M M M M M M M M M M b             ",
"                      M M M M M M M M M M M M b         M M M M M % @ r ; H O 6 K W Q Q Q Q @ J > q M M O r r ; m m M M b M M @ N b M @ N M M M M N M M b b     ",
"                      M   n M M M M M M M M b n       M   M M M n % > @ @ @ @ $ @ @ Q Q Q @ O @ @ ; ; @ @ @ M M M M M @ @ N @ @ @ @ @ M @ + N M M b b           ",
"                      M M n M M M M M M M M N n b     M     M M M b M @ @ M N @ m 4 @ Q M H @ O r ; @ @ @ @ @ @ @ @ @ @ @ @ @ @ @ @ @ @ N M M M M N             ",
"                      M M M b M M M M M M   M   M             M M M b M M M q @ @ @ @ I J M * V > M M @ @ @ @ @ @ M @ @ M @ @ M @ @ @ M M M M M N b b b         ",
"                          M M M M M M M V N M   N               M M M M M M > @ @ M % > @ V ; > > M r M @ @ @ M @ @ @ M M @ M M M M M M M M b b n b             ",
"                          M M   N M M M N M b                       M M M M M N @ @ @ @ @ @ @ M @ @ @ @ @ > M M m M M M M M M M M b n n b b b                   ",
"                            M   N   M M M   b M                         M M M M M M M N M M M M M M M M M M m M M M M M N b b b b b                             ",
"                            M       M M N   N   b     M   N                 M M M M N M M M N M M M M M M N n M b n b M   M                                     ",
"                                        N   M     M     M M N                 M       M N b b M M b b M b M   M       M M     N                                 ",
"                                            M   M M M                                     N   M       M M     N           b                                     ",
"                                          b M M M M M M   M   N                                           b                                                     ",
"                                                M M M                                                                                                           ",
"                                          M   N   M   M                                                                                                         ",
"                                          M       M M     b                                                                                                     ",
"                                                      N                                                                                                         "
};
