/* XPM */
static char *a6e56a900fb04244ae7a8e6c1178b2d8gilWAIaPsFDr6R6D[] = {
/* columns rows colors chars-per-pixel */
"80 80 116 2 ",
"   c None",
".  c #0F0F2E",
"X  c #0F102F",
"o  c #10112F",
"O  c #070736",
"+  c #080736",
"@  c #090936",
"#  c #0F0B38",
"$  c #100B37",
"%  c #110B38",
"&  c #1A0F3A",
"*  c #0F1130",
"=  c #101230",
"-  c #141A35",
";  c #1E103A",
":  c #151F38",
">  c #21123B",
",  c #2B163D",
"<  c #35193F",
"1  c #162139",
"2  c #18243B",
"3  c #1A293F",
"4  c #0E0E46",
"5  c #100E47",
"6  c #151047",
"7  c #171148",
"8  c #1E1349",
"9  c #121254",
"0  c #1C1556",
"q  c #22154A",
"w  c #351540",
"e  c #371940",
"r  c #3E1C41",
"t  c #311A4D",
"y  c #241858",
"u  c #2C1B58",
"i  c #331F5B",
"p  c #152646",
"a  c #1C2D41",
"s  c #213C4A",
"d  c #263F58",
"f  c #161660",
"g  c #1A196A",
"h  c #1C1C74",
"j  c #1E1E7C",
"k  c #271E6D",
"l  c #392267",
"z  c #372471",
"x  c #3C2672",
"c  c #243574",
"v  c #461F42",
"b  c #4E1E46",
"n  c #501E46",
"m  c #462043",
"M  c #4F2345",
"N  c #502145",
"B  c #432251",
"V  c #4B2553",
"C  c #44245E",
"Z  c #412772",
"A  c #294B52",
"S  c #2D5458",
"D  c #315E5E",
"F  c #386F68",
"G  c #468E7B",
"H  c #202085",
"J  c #282386",
"K  c #22228C",
"L  c #3C2A82",
"P  c #362889",
"I  c #392A8A",
"U  c #232391",
"Y  c #292591",
"T  c #262598",
"R  c #29299F",
"E  c #2929A3",
"W  c #2C2CAD",
"Q  c #2E2EB0",
"!  c #2E4E82",
"~  c #315088",
"^  c #36559B",
"/  c #3A6590",
"(  c #3243A6",
")  c #3444AC",
"_  c #3858A5",
"`  c #3B5BAC",
"'  c #3647B0",
"]  c #3D5DB0",
"[  c #436FAF",
"{  c #436FB0",
"}  c #4370B0",
"|  c #4C9D87",
" . c #468392",
".. c #4EA086",
"X. c #54AF92",
"o. c #57B692",
"O. c #58B692",
"+. c #4880B0",
"@. c #519BB0",
"#. c #55A6AD",
"$. c #5CBDA2",
"%. c #57A7B1",
"&. c #57A8B2",
"*. c #5AB2B2",
"=. c #5DBBB2",
"-. c #5FC1B2",
";. c #63CFA2",
":. c #61D0A2",
">. c #64D2AE",
",. c #67DDAC",
"<. c #60C6B2",
"1. c #66D4B3",
"2. c #67DAB3",
"3. c #68DCB3",
"4. c #6BE4B3",
"5. c #6EEBB3",
/* pixels */
"                                                                                                                                                                ",
"                                                                                                        M                                                       ",
"                                                                                                    N     M M       M                                           ",
"                                                                                                        M   M   M   M                                           ",
"                                                                                                          M M M                                                 ",
"                                                    M                                           b   M   M M M M M M M                                           ",
"                                    M           b     M M       M   M                                     M M M   M                                             ",
"                                b     M M       M   M b M b b b M b b N N       M                 N b M     M     M   M                                         ",
"                                    M   M b M b M b n M M M M M M M M M M M M M M M                 M   M     b   M   b M M       M                             ",
"                            b b b b N M M M M M M m M M M M M M M M M M M N M M M M M M                         M b   M N M   M   M                             ",
"                  b   b n n b M M M M M M M M m M M > @ @ @ @ @ N @ + @ @ @ @ @ N N M M M M                       b b N M M M b   M M                           ",
"            b n n b M M M M M N N M @ M N @ @ @ M @ @ @ M r M > > ; V @ > = N @ @ > M M M M M M               M   M b M M M M M M M M                           ",
"        b b b M   M M M M @ @ @ N @ @ M @ @ M @ @ @ @ @ @ M M > V @ M J I @ @ @ @ > M M M b M M M             b   M   M M M V M M b M M M                       ",
"              N M M M M @ @ @ @ @ @ @ @ @ @ + @ @ @ @ @ @ @ ; r @ @ H N Q @ 4 m @ M M @ @ M b M M M     M     n   M M M M M M M M M n M M                       ",
"          b     M M @ @ M + @ @ @ @ N + @ M M M M M @ @ O ; ; @ @ @ @ Q Q Q @ @ # @ @ @ @ > % b M M M   M       M   M M M M M M M M n   M                       ",
"    b b M M   M   N M M @ M M M + M N M M M v v > r r @ M M q > H @ Q Q Q Q Q K 6 O H ; r @ % M M M M M         N M     M M M M M M M M M                       ",
"            b N   M M M b N N M M M M M n b N < r ; = O # m > % @ @ @ Q Q Q Q E K @ H O @ @ @ M 5 M M M M M M     n n M   b M M M M M M M M                     ",
"      b n   M     N M M M M b b n b M     M M N M # % @ O # @ 4 4 H @ + Q Q W Q Q @ 4 O H @ @ M @ N N M M M M M     n n   M M M N M M M M M                     ",
"        b b         b b         M       M N M M @ @ @ @ 9 9 9 9 f @ E @ Q ' Q Q Q Q f @ @ @ @ % > M M % M M   M       n   M M M @ M M M b M                     ",
"                      M         M   M M M r @ @ @ 9 g g 9 W W W W W W ( W Q &.&.Q Q Q %.W @ @ O E r M @ M M b M M M   n n M M M @ M @ M M M                     ",
"                      b       M M M M M @ @ i i Y U E W Q W ] ' Q Q Q Q Q &.Q 5.Q ' W #.Q O 9 O W m M > M M M b M M       N M M M M M M M M                     ",
"                    b   M M M M M M M @ @ r E Q E Q E Q ] ' Q 3.4.&.' ] 3.&.5.5.5.Q Q Q Q Q E E H @ # r M M M M     M   n   M M M @ M M M M                     ",
"M M       N       M       M M M M m @ @ m @ Q Q Q Q ] ' Q ] 3.*.5.5.3.1.5.5.5.5.5.5.5.' %.Q Q Q E O @ % M % M M M M M   b   M M M M @ @ M M M                   ",
"  M   M   M       N     M M N m m @ @ q W W Q Q } { Q 1.4.*.Q 5.5.5.5.3.5.5.5.5.5.1.4.W 4.Q Q W E E @ @ % @ M M M b M   b M M M @ M M @ M b M                   ",
"M M N           n     M M M m N @ @ 0 W E W ] ] Q 1.5.4.5.5.5.5.5.5.5.5.5.5.5.5.5.5.-.Q 4.1.E Q O W @ # @ @ M N M M   M b M M M M * @ @ M N M                   ",
"M M M M M b   b N N N M M N < @ y $ E @ Q Q Q Q 1.1.5.5.5.5.5.O.O.O.O.5.5.5.5.5.5.5.5.-.' 5.Q W 9 H H O @ @ N N > M b M   n M M M M @ M O M M                   ",
"M M M   M     b b M M M m m O 0 0 E 9 Q Q Q ] ' 1.5.5.5.5.O.O...: = = = a a 3 2 2 5.5.5.{ 5.Q Q E 9 H @ @ @ & N % > M     n M M @ M @ M @ M M                   ",
"  M     M   b   N N M M < M + 6 9 E W ` } ] 1.>.5.5.5.O.O.O.O.2 - o = = o - = = 2 2 A 5.5.2.Q Q W 4 @ @ @ @ # v > > M     b M M M @ @ M M M M                   ",
"    M       N b N N M M @ @ 9 O W ` ' ] 1.4.%.^ #.O.G ..a = - 2 = = = o = o = = o o 2 A 5.] Q Q Q K 4 @ @ @ @ & v M M M   n N M M @ M M M N b                   ",
"      M     b b M N m O @ m 9 9 E ` ' 1.4.5.5.,.X.O.5.= = = = = = = = o = = = = - 3 D = A ] Q %.H H @ @ @ @ @ @ # v M M b n M M M M @ N M M b                   ",
"            N b M M r O 0 l R H ' Q ` 4.5.5.5.5.o.5.a 3 = = = o = = = o = = = = = A D X 2 c Q 4.@ H @ @ @ @ @ + $ M M M   N n M M @ @ M M M                     ",
"          N b M b M M m l & R _ } 1.3.5.5.5.O.O.G = = $ o o o X o o = = = = = = = * 2 = = * E 1.1.O @ R R # < > > M M M   M n M M @ @ N M M                     ",
"          b b N M M M r u 9 E ` ] 1.1.5.5.5.G O.= = = = o o o X o o o o o o o o X X - 2 * X -.' 2.9 9 E Q O O @ m M M > b M M M M @ @ M M M                     ",
"          N b N N M m C = W c W -.{ 5.5.5.5.;.4.3 X X = = o o o = o o $ o o o = X X X F a = X 5.W %.9 O W O @ @ N m M ; M b M M M @ @ @ M M                     ",
"        b   N b M @ @ e r h ~ W 3.@.5.5.O.5.a | * X = o = = o o = = = o = = = = o - X - ..= = A ` 4.Q W Q # @ @ @ M > M b M M M @ @ @ @ M M                     ",
"        b   N r M @ > % x h ` } 1.<.5.5.O.;.a 5.o o = = = X o o = = o o . = = = = = X X 1 X = A Q 1.Q W E E @ @ @ @ % m N M M M @ @ @ @ M M                     ",
"    b   b N M M M ; r 5 g T ) +.<.5.5.5.:.O.A : = o = = = * = $ X - o X $ X o o = = = X = * * A *.*.1.Q 9 W @ @ @ N > M n M M + @ M @ @ M b       M             ",
"        M M M M M r @ f g W ` ] 3.5.5.5.5.O.G a = = = = o = = o X = o o X o X o = = = - X * * A 5.=.1.Q 9 Q O O @ $ & N M > M M @ M @ @ M b   b     M M       M ",
"        N m M > M @ 9 f E ` W 2.{ 5.5.;.5.S ..= = = = = = = o o o X * = X X * = * * = = = = - 3 4.Q &.Q E Q O 4 r @ v v M > M @ M N M M M         M   M   M   M ",
"N   M   M M M m M r g 9 Q ` Q 2.{ 5.5.5.5.5.o.3.= = o = = = = = = = = = = o = = X = = = = = X A 5.3.4.Q Q U H H H H @ J > I M @ @ M M M N           M M M       ",
"      M b N m m ; ; z 9 Q Q } ] 4.Q 5.5.;.;.D =.o o = = = = = o * = $ o = o = o o o o o X X X A =.1.1.Q Q U O Q @ W @ K @ P m M # N M M b M   M   M M M M M M N ",
"  b b N b N M m M ; 9 g Q Q ] +.1.1.Q 5.5.;.5.d o o = = o = o = o = o o o o o # o o = o X 2 * A A 4.' Q Q E Q Q Q Q Q @ @ @ m > 7 N M M b           M M M   M   ",
"    b   M m M 7 M @ 9 g W W Q } ' 4.Q 5.5.2.>./ :.3 = = o o = = * o o o = = o X = o = = * - 3 A 5.5.2.W W W %.Q Q Q Q Q K 4 + $ m M M M     b b M     M     M   ",
"  M   M M M N N M ; @ 9 j R W Q ' Q &.5.~ 3.3.Q o $ = = = = = = = = X o o o o o = = * = * X A A 4.4.5.E ) E %.Q Q Q Q # H @ @ $ m N M M       M   M     N       ",
"  b   M b M m m > r @ 9 g E E 9 Q 9 Q E 5.^ 2.5...= - = = = = = = = = o * o X o = = = = = X - A Q 5.5.5.Q f H Q H Q H @ H @ ; # N M M                     N     ",
"    b b M v M ; M @ @ 5 0 9 W R W E E 5.5.` } 5.3.G = = * = = = = o * = = o : o * = * = - = a 5.5.5.5.5.5.*.' Q K H E @ @ # & > M M M N                         ",
"    b n M M M M M M @ @ @ H H Q Q Q E Y 5.( } 5.1.$...X = A = = = o o = = = o o = o = o X - 5.5.1.5.5.5.Q &.Q E 9 E E H @ % $ M M M   b                         ",
"      b b M m m ; m M @ % @ Q Q Q Q Q 6 E 5.5.5.&.Q :.O.s 1 = = = = = o = o $ o = = = = X 5.5.1.Q %.5.Q Q %.Q W 4 O @ @ @ % = M N M N M   M                     ",
"b   M   M M M m m q q Y H Q Q Q Q Q Q Q Q ` 5.5.2.:.O.D 2 = * = o X X X o o * * * * * - X 5.' *.%.Q Q ' Q Q Q Q Q W 9 & & > > M M M   b       M       M         ",
"        b M M m M m > % @ @ Q Q Q Q Q K W W W 5.W %.5.5.5.5.= = * X : X o o o * o * * 5.5.5.Q Q %.Q Q Q %.Q Q Q H E @ @ @ M M M M       b     M   M             ",
"  b M M   n N m M # B 9 U U E Q Q Q H H E h ` 5.5.5.5...A a 5.* * - - X * * * * o * o.5.5.5.*.' E W Q Q 9 Q Q @ H E O @ @ ; m M     b     M M M M b             ",
"    b   M N N N M M @ 5 4 U H E 4 4 9 t @ K h ] { 2.5.5./ D a 2.:.G :.3 * - - 3 D o.o.5.5.W %.E E Q 9 U E E K 9 O O O O M > M M M M     M M M @ M M   M         ",
"          w N ; m @ @ @ @ @ ; @ @ H H R m @ @ 9 Q ' Q 5.5.5.5.Q R S : 5.5.* 5.p 3 5.5.5.-.p | 4 + H @ @ E E @ H E ; @ M M > M M M   M M M M M M M M M           ",
"          b b N M m @ @ @ % @ @ @ @ @ @ 4 7 H O 9 Q E @ ' ] -.5.5.:.5.D 5.5.:.5.5.5.5.,.*.Q W 9 H + @ @ @ + @ @ > @ % m M M M       M M M M M @ M M             ",
"    N   M b v m ; M M @ > ; ; @ O @ @ @ O 6 < J @ 9 f E E Q ] ] 4.5.5.5.5.5.5.D 5.5.3.2.%.#.E O + + + @ @ @ @ @ # ; m M > N M     M M N M @ @ M M               ",
"        b   b m M ; > m @ # @ O @ O @ & # O > @ @ 9 g E E p ' &.Q Q 5.W 2.5.5.5.1.=.' Q E E E 4 + @ @ @ @ @ @ @ % > M M M M     M M M M M @ N @ M               ",
"      N M M M N M m M @ @ @ @ @ @ + & r r < % M @ @ g j W W ( Q %.' ' *.Q Q 5.Q Q %.1.#.9 5 O # H H O O # H @ @ @ > M M M M N n   M @ M @ @ @ @ M M             ",
"        b   v N > M @ @ @ @ @ @ @ M # $ ; < % @ M @ @ g j Q Q E Q Q ' Q 1.Q Q ' Q Q W Q W Q @ H H Q @ 6 @ H ; @ M M M M       b M @ @ M @ M M M M               ",
"    b   M   N m M > m # @ @ @ @ ; m ; M M < m & > @ r # z x Q E O W Q Q Q Q Q Q %.R W E Q Q 4 4 Q Q Q @ + + @ @ ; M M M       M M @ M @ M @ M M M               ",
"            b v m ; M m @ @ # ; & > M M b M M M M M m @ @ k L Q W W Q Q W Q Q Q E E E Q Q Q Q Q Q Q Q Q K + N @ M M M N n M M @ M @ @ M M N M M                 ",
"      b M M   b r m % ; M @ M m > % N M M M M b M M M r @ @ @ @ @ E E Q W E f f K H Q Q Q Q Q Q W Q Q @ H @ @ & N N b   M M M @ M @ M @ M M M M                 ",
"        b   M n M m M ; @ @ O M N N M b   M M M M M M M M M @ @ @ @ O @ E E E E R R @ Q Q Q Q H H Q @ @ @ @ M M M M N M M M M @ @ @ M M M M M                   ",
"              < N 7 M @ @ @ @ @ & v M b M M b n M M M M M m m @ @ @ @ @ M @ @ V 9 K H # Q Q @ E H @ @ @ @ > > M M @ @ @ @ @ + @ @ M M M M M                     ",
"                n n M M @ @ @ M ; M M M b M M b b M M M M M m M ; M M @ @ @ @ @ @ @ @ @ @ 4 @ @ @ @ @ J @ M @ @ @ @ @ @ @ @ @ @ M M M M                         ",
"                r r > b N @ @ M > @ M M M   M M     b b N M M M M M M @ @ @ @ @ M @ @ @ @ @ @ @ @ @ @ @ > @ M @ @ @ @ + @ N M M M M M M                         ",
"                b r b > M M @ @ M @ N M M M   M M       N N N   M M M N M M M M M M M q b M N @ @ @ > M @ @ @ @ M @ @ M M M M M M b                             ",
"                  n b M N M N @ @ @ @ M M M M     M M     b   M   M N M M M M M M M M M M M M M M M M M N M M + M M M N M M M M M                               ",
"                  n n M M M M M M @ M @ M M M M M M                   M M M M M M M M M M M M M M M M N M M M N M M M b b   M                                   ",
"                    n   M M M M M @ @ @ @ @ N M M M M           b N M     M     M   b b M M M M M M M N M M b b b   M                                           ",
"                    b     M M M M M M @ @ @ @ M M M M   N         N   M     N                   M M M M M M M M M M                                             ",
"                      b     M M M M M M @ M @ M M N N M M           M         M                                                                                 ",
"                            b     M M M M M @ M M M M M M N     N   M       N                                                                                   ",
"                                    M M M M M M M M M M M M M           N     M M       M                                                                       ",
"                                N           M M M M M M M M M M M M N       M   M   N   M                                                                       ",
"                                        M         M M M M M M M   M           M M M                                                                             ",
"                                    M   M M   M     M M   M M     M b   M   M M M M M M M                                                                       ",
"                                                    M M V M M M               M M M   M                                                                         ",
"                                                M     N         M     M M M     V     M                                                                         ",
"                                                      M   M             M   M     N                                                                             ",
"                                                                                    M                                                                           "
};
