/* XPM */
static char *dd8673ddf31b4cde84f274526d9d7e27W5lJ2ec8xvw5cnck[] = {
/* columns rows colors chars-per-pixel */
"80 80 78 1 ",
"  c None",
". c black",
"X c #1C0000",
"o c #263238",
"O c #37474F",
"+ c #455A64",
"@ c #546E7A",
"# c #B71C1C",
"$ c #D50000",
"% c #D50100",
"& c #D60000",
"* c #D60100",
"= c #D60101",
"- c #D70401",
"; c #D70501",
": c #DA0703",
"> c #D80F01",
", c #DB0F03",
"< c #DB0B04",
"1 c #DC0F06",
"2 c #D91001",
"3 c #DB1003",
"4 c #DB1601",
"5 c #DB1801",
"6 c #DF1609",
"7 c #E01408",
"8 c #E41E0B",
"9 c #E41F0C",
"0 c #DF2403",
"q c #E4230B",
"w c #E43F03",
"e c #F13916",
"r c #C62828",
"t c #D32F2F",
"y c #E53935",
"u c #F54C17",
"i c #F5421A",
"p c #FA4C1E",
"a c #FF5E1F",
"s c #FF611F",
"d c #FF631F",
"f c #FF641F",
"g c #FF6D1B",
"h c #FF7C17",
"j c #FF7719",
"k c #FF7A18",
"l c #FF7B18",
"z c #FF7C18",
"x c #FF5621",
"c c #FF5622",
"v c #FF5722",
"b c #FF5A20",
"n c #FF5A21",
"m c #FF5B21",
"M c #FF5922",
"N c #FF6020",
"B c #FF6120",
"V c #F59205",
"C c #FA9C07",
"Z c #FF9E0E",
"A c #E3AC04",
"S c #FFA70A",
"D c #FFA70B",
"F c #FFA70C",
"G c #FFB308",
"H c #FFB309",
"J c #FFB30A",
"K c #FFB408",
"L c #FFC103",
"P c #FFC004",
"I c #FFC104",
"U c #FFC105",
"Y c #FFC205",
"T c #FFC006",
"R c #FFC106",
"E c #FFC107",
"W c #607D8B",
"Q c #78909C",
/* pixels */
"                                                                                ",
"                                                                                ",
"                                     ..                                         ",
"                                    ....                                        ",
"                                   ..+o..                                       ",
"                                   .++oo.                                       ",
"                                  ..+ooo..                                      ",
"                                  .++oooo.                                      ",
"                                 ..++oooo.                                      ",
"                                 .++ooooo..                                     ",
"                                ..++oooooo.                                     ",
"                                .++ooooooo..                                    ",
"                               ..++oooooooo.                                    ",
"                               .+++oooooooo.                                    ",
"                              ..+++oooooooo..                                   ",
"                              .+++++oooooooo.                                   ",
"                             ..+++++oooooooo..                                  ",
"                             .++++++ooooooooo.                                  ",
"                             .................                                  ",
"                            .yyyyyyyttttrrrrrr.                                 ",
"                            .yyyyyyyttttrrrrrr.                                 ",
"                           .yyyyyyyyttttrrrrrrr.                                ",
"                           .yyyyyyyyttttrrrrrrr.                                ",
"                           .yyyyyyyyttttrrrrrrr.                                ",
"                          .yyyyyyyy.....rrrrrrrr.                               ",
"                          .yyyyyy..WWWWW..rrrrrr.                               ",
"                          .yyyyy.WWWQWWWWW.rrrrr.                               ",
"                         .yyyyy.WWQQWWWWWWW.rrrrr.                              ",
"                         .yyyy.WWQQWWWWWWWWW.rrrr.                              ",
"                         .yyyy.WQQWWWWWWWWWW.rrrr.                              ",
"                         .yyyy.WQQWWWWWWWWWW.rrrr.                              ",
"                         .yyyy.WQQWWWWWWWWWW.rrrr.                              ",
"                         .yyyy.WWWWWWWWWWWWW.rrrr.                              ",
"                        .yyyyyy.WWWWWWWWWWW.rrrrrr.                             ",
"                        .yyyyyyy.WWWWWWWWW.rrrrrrr.                             ",
"                        .yyyyyyyy..WWWWW..rrrrrrrr.                             ",
"                        .yyyyyyyyyy.....rrrrrrrrrr.                             ",
"                        .yyyyyyyyyyyttttrrrrrrrrrr.                             ",
"                        .yyyyyyyyyyyttttrrrrrrrrrr.                             ",
"                        .yyyyyyyyyyyttttrrrrrrrrrr.                             ",
"                        .yyyyyyyyyyyttttrrrrrrrrrr.                             ",
"                        .yyyyyyyyyyyttttrrrrrrrrrr.                             ",
"                        .yyyyyyyyyyyttttrrrrrrrrrr.                             ",
"                       ..yyyyyyyyyyyttttrrrrrrrrrr..                            ",
"                       ..yyyyyyyyyyyttttttttrrrrrr..                            ",
"                      .#.yyyyyyyyyyyyyttttttrrrrrr.#.                           ",
"                      .#.yyyyyyyyyyyyyttttttrrrrrr.#.                           ",
"                      .#.yyyyyyyyyyyyyttttttrrrrrr.#.                           ",
"                      .##.yyyyyyyyyyyyytttttttrrr.##.                           ",
"                      .##.yyyyyyyyyyyyytttttttrrr.##.                           ",
"                      .##.yyyyyyyyyyyyytttttttrrr.##.                           ",
"                      .##.yyyyyyyyyyyyytttttttrrr.##.                           ",
"                      .##.yyyyyyyyyyyyytttttttrrr.##.                           ",
"                     .###.yyyyyyyyyyyyytttttttrrr.###.                          ",
"                    .#####.yyyyyyyyyyyyttttttttt.#####.                         ",
"                    .#####.yyyyyyyyyyyyttttttttt.#####.                         ",
"                  ..######.yyyyyyyyyyyyttttttttt.######..                       ",
"                  .########.yyyyyyyyyyytttttttt.########.                       ",
"                  .......................................                       ",
"                           .OOOOOOOOOOOOOOOOOOO.                                ",
"                            .@@@@@@@@@@@@@@@@@X                                 ",
"                            .WWWWWWWWWWWWWWWWW.                                 ",
"                            R.................A                                 ",
"                           RMMz$9M$$$w0$$$$$5RR                                 ",
"                             Rvvv$$$$$$$$$$4CZ                                  ",
"                            Rvvv$$$$$$$$$$2VEERR                                ",
"                          R  Kvep$$$$$$$$$ezqwSRR                               ",
"                         RRMzv;8vv$$$$$$$6v12fRRR                               ",
"                           RRfav;$$$$$$$:v<<vfR                                 ",
"                          RRRRlaHv1p$$$pp99vRR                                  ",
"                           RRRdRv<vv9$6i99vHFR                                  ",
"                        R  RR Rvvvv<<,pv99aRRLRRR                               ",
"                          RRRRjvvvvvMud,4KgfMdE                                 ",
"                            RzFRvvvSRzjGzBzRRE                                  ",
"                            EBEzhvHShzRRRRRRRLE                                 ",
"                          R  ERBfaRkhR RRRRRRRE                                 ",
"                          E EEEER RfdREERRRRE                                   ",
"                           EEELERRR  EERRRRR                                    ",
"                             EEERR  RERRRRLR                                    ",
"                                 RREEERRRR  ERE                                 "
};
