/* XPM */
static char *c42f8d4597bf4ee79b8ea2333f8c6a78GJmEtKpqAwqbvbQw[] = {
/* columns rows colors chars-per-pixel */
"80 80 160 2 ",
"   c None",
".  c #0A0300",
"X  c #120701",
"o  c #160901",
"O  c #180A01",
"+  c #1E1004",
"@  c #1D130B",
"#  c #220D04",
"$  c #251203",
"%  c #2A1604",
"&  c #2D1805",
"*  c #24150A",
"=  c #281608",
"-  c #27180B",
";  c #2D1B0B",
":  c #351606",
">  c #361B07",
",  c #381F07",
"<  c #36130B",
"1  c #39170C",
"2  c #351C09",
"3  c #391E0B",
"4  c #3B2107",
"5  c #3D2309",
"6  c #352213",
"7  c #3C2614",
"8  c #3E2916",
"9  c #3F2D1A",
"0  c #411D11",
"q  c #41250B",
"w  c #49270D",
"e  c #45290E",
"r  c #4C2D0D",
"t  c #54320F",
"y  c #412611",
"u  c #482616",
"i  c #432C15",
"p  c #4C2D15",
"a  c #432E1A",
"s  c #4D2B1A",
"d  c #522F1D",
"f  c #4E3114",
"g  c #45321E",
"h  c #4D331B",
"j  c #543514",
"k  c #593613",
"l  c #563817",
"z  c #5A3916",
"x  c #53351B",
"c  c #56391B",
"v  c #5C3B1A",
"b  c #623F1C",
"n  c #512A21",
"m  c #4C3620",
"M  c #4D3821",
"N  c #573E24",
"B  c #5A3E23",
"V  c #5D362B",
"C  c #613D24",
"Z  c #61372E",
"A  c #663E2F",
"S  c #64421E",
"D  c #574026",
"F  c #5C4025",
"G  c #5B4329",
"H  c #624326",
"J  c #63472A",
"K  c #634629",
"L  c #68442C",
"P  c #63482A",
"I  c #674828",
"U  c #664829",
"Y  c #65492B",
"T  c #66482A",
"R  c #67482A",
"E  c #67492A",
"W  c #664A2A",
"Q  c #66482C",
"!  c #674B2D",
"~  c #664A2C",
"^  c #68492B",
"/  c #6B492A",
"(  c #684A2B",
")  c #684C29",
"_  c #6A4C2A",
"`  c #68492C",
"'  c #694A2C",
"]  c #684B2C",
"[  c #694B2C",
"{  c #6A4B2C",
"}  c #6A4C2D",
"|  c #684C2E",
" . c #6C4C2D",
".. c #704C27",
"X. c #724F2D",
"o. c #74522E",
"O. c #78542F",
"+. c #6C4432",
"@. c #6F4F31",
"#. c #724E30",
"$. c #705131",
"%. c #705230",
"&. c #725230",
"*. c #765330",
"=. c #775330",
"-. c #755532",
";. c #755534",
":. c #775535",
">. c #775635",
",. c #755432",
"<. c #7A5530",
"1. c #7A5732",
"2. c #785334",
"3. c #7B5735",
"4. c #7A5735",
"5. c #795934",
"6. c #7A5835",
"7. c #7B5935",
"8. c #7A5935",
"9. c #7B5B34",
"0. c #7A5936",
"q. c #7B5836",
"w. c #7A5A36",
"e. c #7C5835",
"r. c #7E5B35",
"t. c #7C5936",
"y. c #7C5836",
"u. c #7D5A36",
"i. c #7F5B36",
"p. c #7F5A36",
"a. c #7C5936",
"s. c #7E5A38",
"d. c #7F5C38",
"f. c #7E5D39",
"g. c #7F5D39",
"h. c #7E5D38",
"j. c #7D5D3A",
"k. c #7E5D3A",
"l. c #7D5C38",
"z. c #805D37",
"x. c #805C38",
"c. c #805D39",
"v. c #805C39",
"b. c #805C3B",
"n. c #85623B",
"m. c #83623D",
"M. c #83623E",
"N. c #84613C",
"B. c #85613C",
"V. c #84613D",
"C. c #85613D",
"Z. c #84623C",
"A. c #85623C",
"S. c #84623D",
"D. c #85623D",
"F. c #83653E",
"G. c #83643E",
"H. c #84643D",
"J. c #84653E",
"K. c #85623D",
/* pixels */
"                                                                                                                                                                ",
"                                                                            V.0.    e                                                                           ",
"                                                            F           M.l   &.>   +                                         t     t                           ",
"                                          0.f.V.} G.A.0.I             l V.V.V.c 7 0.5   p 0.  F         H           F     t     t           t                   ",
"                                        V.V.} A.V.  V._ V.V.F   Y G.p r.V.5 C.; V.5 O 5 ; v 4.V.A.A.{ V.V.V.c.  H       t F   t   t t   t                       ",
"                                t     r.V.{ V.V.F V. .n.h.F F F G.I V.V.5 , 5 r.5 O O O x ; V.B A.G V.r.F | G Y f.  F H F   t t t j t r   t t   t               ",
"                        t   t             V.V.F F F V.I F F F F F I r., 5 5 5 5 O o O O o 8 F F F V. .N D F } _ V.F F F   t t t t r t t t t t t   t             ",
"                  t t     t     t   t   c.A.F F F F B H n.j B v O.j ( >.q $ 5 >.>.O O O 0.F F B F F N x D 2 F } x F F F B F t t r r t & t t r t t t             ",
"              t   t     j   t t t t   z   c.f.F F F ( S V. .B S z l S $ b q 7 j 5 5 O x.h _ F F F c.M.2 B G F j.} F F l F F z t ( 2 j j ..t t t     t           ",
"            t     t   t t r t t t t t S ( V.A.A.F V.S  . .t z S S t % r 5 O c $ $ $ $ c i c V.F } f.8 V.G O B 2 A.G F V.F j j b & l t o F & t z b               ",
"                t t t r t t t t j t j.j.P n.F } ( r.} V.j t t v t t t 5 O O O 5 $ 5 p 0.8 2  .H V.c. .{ O O O B 6 F ( V.V.F V.-.A.l O O O t & j b   t   t       ",
"            t t t t r r t & 5.o.r C.F M.Y V.  A.z.V._ t t t t j t t t o O O O o % 5 x r.F F F c.{ {  .O O O O O 8 V.c.} H H } n.V.O O O O O & t k t t t   t     ",
"          t     t t j $ t ) j j j B w.J D A.N V.G A.0.F t t t C t t w t o O O t 5 5 t F j F B F { V.F A.O O O n.c.A.A.A.A.c.A.@.N z O O O t t n.t t t t t j     ",
"          t   t t t $ t t o G & <.0.b l N N N D V.z z.V.B t B <.V.& j t t O 5 , 5 t t t F l F A.V.8 J.A.Y O T >.V.V.V.A.A.A.0.8 V.S c.O t r S b V.t t j         ",
"            t t t t t t O O O j ; N N N N N N N N K V.S S l S b z b t 2 > = l 5 t t t t t j V.c.V.C.V.6 6 6 l   H Y A.V.r.V.V.V.n.8 & % t t t S t n.t N.X.N     ",
"              t t t   O O O O O ; N N B N N N N w.l A.} / I A.H k S k k j f l ; y j t t } ( A.A.A.A.A.V.c 0.V.8 8 V.V.( &.V.l V.n.O.n.r t & & t t t S B         ",
"        t   G.  t n.h n.O O O F N F N N D n.B l c.A.A.A.J.c.A. ._ V.r.H S S l b   p t V.x.c.V.@.@.V.V.c A.J.5 V.c s.r.V.q V.  V.S V.V.n.t t t t t t c S S N   N ",
"            S b S O S S j o F h t N j K D h N c A.5 A.c V.s.V.A.V.V.C V.r.d b.c S b S V.V.A.A.C.V.V.D.D.A.5 5 5 s.j V.e r.V.5   4 V.S b b t t t t t A.A.N N N   ",
"          r.V.f.z.V.S & 2 ; l t t t N j q 5 h | h h 5 V.c V.V.A.n.V.V.4.p p u r.H p r.V.b S C.C.V.V.D.D.5 5 5 5 4 i V.r.0.5 5 5   j S V.S V.t S j V.c.B N N N N ",
"          V.  c.A. .c.F F x j % & t t r 4 5 5 5 5 5 5 5 c V.A.A.V.x.V.s p p p 5 C n.V.A.V.V.A.A.A.V.r.r.V.5 5 5 c c V.5 5 5 5 5 5 5 n.V.S S k S b V.0.V.N F N   ",
"        V.S r.} x.} V.B -.B N j t j h N N 4 5 0.4 5 5 0.A.J.C.C.x.s.s.x p p , 0.H : r.x A.y.b.A.V.r.x V.l V.5 j r.n.5 5 5 5 5 5 c V.4.V.C.C.v.D.b B S S | N V.  ",
"      t r.V.} V.V.F x.B z j B N t h h 5 $ 4 e @.r.4 V.s.C.C.C.C.V.l C.b.m.p s s : : : c.d C.A.A.V.V.l n.x l e V.b.5 5 5 5 5 5 5 r.5 V.V.x.C.C.b.A.A.| +.| P V.  ",
"    t   z.t S S F v F z { F l l j N ; 5 5 5 l x 5 x l V.s.V.A.C.H A.C.s p u s : : : : : x A.C.C.A.c   o.5   q V.5 5 5 5 5 5 5 5 5 q A.  A.A.A.A.A.{ V.C.N f.! F ",
"        t j t F l F j F / j B j O.; j r O 5 8 5 4 5 V.p c A.A.A.V.A.p s s q u p : : : V.A.J.C.C.A.A.V.q 5 5 V.5 5 5 5 5 e 5 5 5 e q A.v b.x.A.A.A.A.A.B N D V.F ",
"      t t t t t j F B V.t t t B j { r.o O o 5 $ 5 5 5 l V.V.V.A.V.p p s q 3 p , s.: V.,.V.V.J.A.V.V.5 5 5 q 5 z q 5 5 j V.s.5 V., q q B.z V.c.A.C.C.N B N N N B ",
"      r.t t t t A.z V.t t t t t b 5 o O O O O $ 5 5 A.A.V.s.A.A.x.V.p p s C , 1 : s c b.V.V.C.C.V.s.V.5 5 3 q , n.5 V./ 5 5 q 5 q q , r c V.x.B.J.j.C.N B D V.  ",
"  t   r.t t t t t z I V.j t t y.q , 5 O o o 5 5 5 l s.&.b.V.V.H V.V.V.p C.3 3 3 3 , x d j A.A.C.c V.C.V.5 q q , r q A.5 5 5 &.x q r 5 V.V.B.B.B.! V.V.V.N M.f.  ",
"      t k t t t   S V.} F t T q $ 5 5 5 o 5 4 5 5 V.x 0.V.c V.V.r.C H B s.C.3 3 , V.n.V.b.A.A.C.D.V.z l p , r 1 y.p , < 5 $ 3 5 c 5 V.t A.H B.x.V.V.! J K V.V.V.",
"    t     t t k S r.A.H S S <.c h h $ & $ 5 5 5 5 5 e y b.A.C.C.V.V.V.x V.B C , J.w.V.V.V.V.A.A.D.D.c D.y.t 5 e t d S $ q 3 q 1 5 x t t t A.H C.V.s.V.V.c.A.@.! ",
"        t t t V.S V.A.A.V.z B.H S 5 5 5 @.5 $ $ 5 c c V.V.3 C.c V.s.V.V.,.h c y C.C.s.V.V.V.f.A.D.D.D.D.q c w j t t 7 w , O q # 5 r t t t t S C.s.r.m.f V.V.0.V.",
"      t t t t t z S A.A.V.A.A.c 5 5 5 5 5 5 5 5 5 x V.V.3 3 3 A.c V.y.V.V.c 4.4.r.x x V.f.n.B.A.V.V.D.D.x.b.t t t t t w O O O < $ d t t k n.A.A.V.l n.V.J.V.V.V.",
"        t t t V.V.V.A.A.A.A.C.s.A.5 5 5 c 5 5 5 V.V.y., 3 3 3 3 x s.r.V.q V.4.5 V.c r.,.s.V.G A.V.c.V.z.r.1 w t t t < O O O O O # r.d t n.x.V.V.c V.V.5 A.l V.<.",
"  t   V.n.t V.z.V.J.C.C.V.V.N s.b.V.5 V.r.V.5 s.4.x d A.3 3 3 y.V.V.c >.>.r.$ 5 5 >.c r.G V.V.V.V.V.A.A.l y.< < t 1 < < O O O < < u t b b.V.A.A.A.y.5 5 5 V.e   ",
"      S S S V.A.V.C.M.C.V.y.s.C.z c j V.c c l V.V.l x V.C.3 C.y.V.l C.J.$ 5 5 5 5 4 i D V.r.g V.G V.s.j A.c t w k # =.< < O < < < c l r.B.H H C.y.q 5 5 5 5 q   ",
"      V.V.z.A.H H n.C.C.s.0.j.G +.V.,.b.c c s.V.l y C.M 3 x c b.4.C.C.$ 5 5 o 2 $ A.h A.s.g g g A.G V.V.b.k t t 1 r w % # # < < < 0.d b.y.A.A.C.0.l 5 5 5       ",
"      ( V.V.c.V.V.n.C.y.C.N +.M.V.V.V.V.V.V.C.C.V.V.C.3 3 3 b.y x C.5 5 5 O o o 5 X 5 c 9 g g g g G A.A.t t t t t w 0 < < < 0 # # 1 C.x A.A.A.z c r.V.5 V.e V.<.",
"  B V.V.A.A.J.V.A.y.V.V.V +.J.9 Z D +.s.b.C.C.C.V.V., 3 3 3 3 N V.r.V.5 O O O . o $ i 5 V.g g g A.A.A.z.A.t t t < p < d 1 b.1 < < < < n V.V.r.V.y.x 5 5 5 V.i   ",
"N   V.N V.} V.c.r.y.V.d M.A m m m V G +.A.A.C.C.V.r.C.3 3 3 C.C.c A.V.h 5 O X O 9 . i O 5 h g V.f.A.H J.A.y.t t 1 < d < < 1 x.< 8 < C.s.r.V.V.0.b.5 5 5 5 5 5   ",
"    D N N V.} A.C.d V.s.+.g g g g m m +.V.V.C.x.c A.C.C.3 C.0.C.V.A.; l e 4 O i . . . 5 * G N V.V.V.A.C.j H t   < t < r < 1 y 0 < V.0.s.r.b.j 0.l l 5 5 5 l     ",
"  N N N N N | r.n b.w.3 s.g g g a Z A C.V.s.C.C.b.b.x N x b.C.C.A.A.V.V.* $ $ . . . . . 6 D f.A.G G A.C.b.A.j u t t j < p a 0 s m C.D C.c C.n.i V.V.5 5 5 4.5   ",
"    N N N 0.V.V.V.V.< a n Z Z g Z V A V.s.s.V.c V.V.r.A.,.b.c c J.C.C.D V.5 7 5 . . . m m D V.V.D.C.A.J.A.A.A.t t t t t p V.  g g g s a V.V.5 G.l 5 5 5 5 4 5   ",
"    V.N w.:.V.d V.< i < < g m g Z N V.r.f.l V.V.r.V.s.b.A.A.V.V.V.A.c C.V.@ m 9 w.. 9 9 c c V.V.D.C.C.A.A.A.-.A.t t t d p V.g g g g m D V.5 5 5 5 5 5 5 5 x 5   ",
"  B ! F A.n V.V.#.M.< n m g g m G N M +.c 4.r.5 b.l y.0.c C.J.s.s.V.V.V.g g 9 @ @ @ g G.f.V.V.V.A.A.V.V.J.l V.V.x.j V.<.0.f.d g m g V.V.5 5 5 5 5 5 5 5 l 4.    ",
"    V.f.s { { < 0.u u m * g g 9 N m C.p V. .5 5 5 n.i s.C.A.C.x.4.V.c c.V.g g m m 9 D 6 6 A.A.n.V.J.f.A.A.V.r.c j j A.A.F V.V.b.g A.f.s.A.5 5 5 5 5 5 x V.V.    ",
"      V.A.k.< < < d # s g g g f.g f 9 X.G $ 5 5 , 5 c V.5 V.l V.h V.G C.y.C.g A.j.V.f.V.G G V.V.f.V.A.A.V.s.f.V.G 4.V.c l V.D N F V.c C.V.c 5 V.w.q A.,.V.l 5   ",
"      s.  < < < < = 1 B O g - g p g g & D f 5 q 5 V.l 5 5 5 V.y V.V.3 #.u G u C.V.w.V.V.V.f.n.h.s.V.G J.V.f.D f.V.A.A.A.V.0.V.V.c.D.D G c l l c c x V.! V.      ",
"      f.4.! < < 3 1 1 o O O g & g f & t t O b $ 5 4 5 5 5 5 5 c V.3 3 3 x x s.C.D D V.s.V.A.V.V.D w.4.V.V.D A.V.g V.D V.,.r.A.c D.D.r.V.V.V.0.V.l N V.c l       ",
"      h V.V.s.< < < O O O O o & g t t t O O O 5 $ 5 5 5 5 5 V.V.3 3 3 , 3 x 3 b.N V.,.s.V.G V.F $.V.m V.N s.c.g g g s.G 4.M C.C.V.V.V.V.A.V.V.V.{ V.V.D V.N     ",
"    N   C.N d h C.y < O O O j a v t j o O O O O $ 5 c V.5 V.r.4.C.3 3 3 b.3 3 3 J.x A.G V.G.j.@.0.g * g j.g g g g g a D N V.V., C.N b.y.V.V.V.V.A.s.N N N   F   ",
"        N D N 0.6 < y t O j 8 j t t r t O O O 5 5 n.5 l e V.x V.N C.3 3 3 6 3 3 5 x G V.f.g V.m - m g g g D V.g g 9 y.s.d n.3 3 3 V.c V.V.V.V.y.x.B N N N N N   ",
"      B N N N B s < & & % t j t t & t t r O 5 h e 5 5 5 r.c c c c x 3 3 3 3 3 5 C.C.f.V.g g m 6 D g o g ; ;.9 g g w.7 C.V.3 3 3 3 3 c V.V.r.V.n.b.D N N B       ",
"        N N N < < 1 < t r t = * t t t 7 ; $ r 5 5 5 5 5 q c V.V.s.3 3 3 3 3 3 C.w.j.f.g g g 9 m m O o o m - g g g 5 G C.1 V.3 3 , V.V.V.r.y.V.N G V.s.N V.g     ",
"  N       N 4.f.w < < r.t f g g g t g g i , 5 $ $ 5 5 5 V.V.V.s.$.C.3 3 3 x h b.V.V.T V.m 9 m g o o O O O 8 g g m V.F 1 : : V., V.s.V.V.V.l V.&.C.@.M M m   a   ",
"      c N N V.V.V.< z b S V.g S f j g 0.V.5 5 5 l n.5 V.r.V.V.c G C.x.3 C.y.0.C.M y V.V.N g G @.g o O O N g g g V.N > : : > > y V.G.V.V.l ,.,.5 V.g g g m M N   ",
"    t     t r.c N p V.n.D M l S V.g l C H r.3 y.l c x V.V.A.J.G s.h 7 x G C.x.A.A.V.V.m m g 8 ! g g o g 9 g g g g N V.: : : V.0.A.c l b.p B 5 5 5 j.g g g       ",
"        j t t V.b 3.n.d d n.h.G M M V.0.l j x C.M.V.r.V.c c V.c.r.m p a C.y x V.J.V.N B N N N m ; - * g V.g g g h D G V.: V.4.V.V.y.V.L l 5 5 a 5 a f m         ",
"      t t t t t H x.V.V.A.V.V.A.C.c.s.N N x x.c x c w.C.A.A.n.V.f g g g g G V.V.V.f.0.D N N D f.V.J 9 G ; a g V.s.V.x x p A.A.r.n.n.I v 5 5 5 5 i a F g   g     ",
"        t t t n.S c.V.x.x.V.A.A.C.A.V.c b.m C.C.V.V.C.J.A.A.V.S V.g t g b V.j A.Y 0.A.0.F V.l ! D D N V.D D F V.V.V.A.A.y.b.p s n.h H 5 4 p 4 5 i e g g g g g   ",
"  t   t n.t t h.S A.<.4.b.A.A.A.b.A.M C.c 3 C.3 V.x A.w.A.A.G A.0.t t t f S 0.0.0.n.N ! N 0.! n.b.F w.! G D h.n.G G V.A.A.A.A.c n.n.5 5 -.5 i 5 4 g g g g g g   ",
"      t S t j t t v b A.F V.V.x.A.A.A.C.3 3 3 3 3 V.x A.V.J.A.A.t t j r r H $ V.e -.0.c f.V.h Y N N N V.@.b.V.V.V.V.V.A.A.A.c A.F.5 r h , i $ 5 g 2 g g g       ",
"        j t t t r r D 2 A.V.4.V.C.C.C.3 3 3 3 3 3 5 x C.V.V.A.z.l t t t ; i 5 5 V.c 5 s.l 5 5 B N N N N ! V.V.V.V.A.A.C.C.C.J.A.5 5 5 5 $ 5 5 g g g   g         ",
"          t l t j & j S m V.D V.w.s.0.C.3 3 3 3 3 V.C.C.V.V.S A.n.h.t $ q 5 O 5 $ 5 4 5 5 5 y h D N D C.T V.f.V.A.C.C.A.C.C.V.q 5 5 5 $ 5 5 o m - g 9 g         ",
"    t   N   j t & t V.O g * A.N V.c C.x V.3 V.3 V.w.J.C.V.V.V.r.S r r 5 5 O O O 5 $ 5 5 5 h 5 5 J.N B N V.| C.C.C.C.C.J.J.A.s.V.5 5 5 5 i o O O m ; 5     g g   ",
"      N t j B   N V.O o o m - N V.! C.x x y c h V.J.C.C.V.V.r.0.r.l q 5 o O O O O $ 5 5 &.A.5 J N N N N B ` J.C.A.J.A.V.V.c A.V.e 5 F.g O o o + X $ 5           ",
"          B N N k o O O O O 8 K m.m.n.V.n.0.n.h x h x V.V.A.A.p r.n.b., j O O O 5 5 5 5 q e j =.q B N B N V.f.A.A.A.A.V.A.A.9.l l x i 4 5 $ O O a a             ",
"        N N N N m | O O O | N V.0.N V.Y F.O.A.5.r.V.V.A.A.A.c 9.z.5 & e l X.O 5 q 5 5 q q O.h 5 5 h M 5 l V.A.A.V.V.f.V.V.5.<.n.j 0.8 l g g O N a g g g         ",
"          N N ; D D G O g >.D f.N N N r.) F.1.I o.8 S A.5.r.V.A.r 5 5 x ; = % 5 5 5 , q , q , 5 h h x D V.! J.0.f.V.V.V.j.h.l V.V.c.V.s.8 s * g                 ",
"    N       N D D ; 2 = g g g g g m c N P v O.8 v r.f.n.G.G.G.r 5 5 t 5 r r 4 5 & & r q q q q , 2 5 ; D N B ! s.s.V.N r.m.j V.V.j c.j  ./ V.a C 6 c             ",
"        N N N N N N g g g - - g F m N H o._ 6 t G O t 6 S &.-.V.5 t t t 5 r 5 t t t n.r n.q q 5 % N N N N N J G G f.o.h.G S n.t t v A.c D N C C C V.C           ",
"        D     C.D F f.g g g g g g M S m h.t D b O O O t 6 j f.} t t t t t r t t t t j r e 5 r $ q 5 O D ; G >.G A.A.g S G V.t t b t j C   C C C C C C           ",
"            B ~ N V.f.N g M g N g g g N t t t O O O O O & c V.l l j t t 5 x.5 t j t 5 5 e r 5 h t O O O D 7 ~ m V.g j g g t G j t t C C C b.C C C               ",
"                  ! N N N F N g g F g c t t r t O O O j F 0.F B n.T t q r , h l t 5 x 5 5 l w.j O O o o o 7 9 m g g g g t t t G t C C C C C  .C                 ",
"                  N N N N N N D N N N N l & t t t O j h F | N N j H j 5 5 5 r j c 5 5 5 B.c t r j O O O C.m N m m m m f t t t t j A.C C C C C C                 ",
"                    N N N g   N F N N N K t t & & & j N N N N N B N H 5 r r l B l x B H T x.7 j t t O     N N N g G g g t t t C   b.l C           C C           ",
"              N       D       m N N D j j v 9.t B m B ; 2 N N N N ! V.V.5 V.r.V.c N N N j ( A.A.& 7 % g N N B N D c N m.g t r.r.A. .C C                         ",
"                  N N N   N       N V.F h l j j j B N K N B D N N ! c l j b.V.V.B D N N B c S S b     f.8 ; N N     g r f j               C C                   ",
"                          N N D N N     V.V.F B N j l D M.N N N   V.V.  0.V.c c V.N N N V.V.V.V.r.V.B S     N     g g       g f t                               ",
"                                      N N       0.0.B F D ! N f.f.! !       N       N           V.V.V.  N B N                                                   ",
"                                                        N N N                   D N N                           N N                                             ",
"                                                                N B                     N D                                                                     "
};
