/* XPM */
static char *_78fe643de14456d85789db5ff13f225mGf45xqMq2K1vEhc[] = {
/* columns rows colors chars-per-pixel */
"80 80 8 1 ",
"  c None",
". c black",
"X c #D46600",
"o c #FF7E00",
"O c #FFC20E",
"+ c #B4B4B4",
"@ c #99D9EA",
"# c white",
/* pixels */
"                                  ..............                                ",
"                                  .@@@@@@@@@@@@.                                ",
"                            ......@@@@@@@@@@@@@@......                          ",
"                          ...@@@@@@@@@@@@@@@@@@@@@@@@...                        ",
"                         .@@@@@@@@@@@#####@@#@@@@@@@@@@@.                       ",
"                        ....@@@@@@######@@@@##@@@@@@@@....                      ",
"                      ..@.oo.@@@@@@@@@@@@@@@@@@@@@@@@.oo.@..                    ",
"                      .@@.Xoo.@@@@@@@@@@@@@@@@@@@@@@.ooX.@@.                    ",
"                    ..@@@.XXoo.@@@@@@@@@@@@@@@@@@@@.ooXX.@@@..                  ",
"                    .@@@@.XXXoo.@@@@@@@@@@@@@@@@@@.ooXXX.@@@@.                  ",
"                  ..@@@@@.XXXXoo.@@@@@@@@@@@@@@@@.ooXXXX.@@@@@..                ",
"                  .@@@@@@.XXXXXoo.@@..........@@.ooXXXXX.@@@@@@.                ",
"                ..@@@@@@@.XXXXXXo....oOOXXOOo....oXXXXXX.@@@@@@@..              ",
"                .@@@@@@@@.XXXXXX.OOOooOOXXOOooOOO.XXXXXX.@@@@@@@@.              ",
"                .@@@@@@@@.XXXXX.OOOOooOOXXOOooOOOO.XXXXX.@@@@@@@@.              ",
"                .@@@@@@@@.XXXX.OOOOOooOOXXOOooOOOOO.XXXX.@@@@@@@@.              ",
"              ..@@@@@@@@@.XXX.OOOOOOooOOXXOOooOOOOOO.XXX.@@@@@@@@@..            ",
"              .@@@@@@@@@@.XX.OOOOOOOooOOXXOOooOOOOOOO.XX.@@@@@@@@@@.            ",
"              .@@@@@@@@@@.X.OOOOOOOOooOOXXOOooOOOOOOOO.X.@@@@@@@@@@.            ",
"              .@@@@@@@@@@..OOOOOOOOOooOOXXOOooOOOOOOOOO..@@@@@@@@@@.            ",
"              .@@@@@@@@@@.OOOOOOOOOOooOOXXOOooOOOOOOOOOO.@@@@@@@@@@.            ",
"              .@@@@@@@@@.OOOOOOOOOOOooOOXXOOooOOOOOOOOOOO.@@@@@@@@@.            ",
"              .@@@@@@@@.OOOOOOOOOOOOooOOXXOOooOOOOOOOOOOOO.@@@@@@@@.            ",
"              .@@@@@@@@.OOOOOOOOOOOOooOOXXOOooOOOOOOOOOOOO.@@@@@@@@.            ",
"              .@@@@@@@@.OOOOOOOOOOOOoOOOXXOOooOOOOOOOOOOOO.@@@@@@@@.            ",
"              .@@@@@@@@.OOOOOOOOOOOOoOOOXXOOOoOOOOOOOOOOOO.@@@@@@@@.            ",
"              .@@@@@@@@.OOOOOOOOOOOOOOOOXOOOOoOOOOOOOOOOOO.@@@@@@@@.            ",
"              .@@@@@@@@.OOOOOOOOOOOOOOOOXOOOOOOOOOOOOOOOOO.@@@@@@@@.            ",
"              .@@@@@@@@.OOOOOOOOOOOOOOOOXOOOOOOOOOOOOOOOOO.@@@@@@@@.            ",
"              ..@@@@@@@.OOOOOOOOOOOOOOOOOOOOOOOOOOOOOOOOOO.@@@@@@@..            ",
"                .@@@@@@.OOOOOOOOOOOOOOOOOOOOOOOOOOOOOOOOOO.@@@@@@.              ",
"                .@@@@@@.OOOOOOOOOOooooOOOOOOOooOOOOOOOOOOO.@@@@@@.              ",
"                .@@@@@@@..OOOOOOooooOOOOOOOOOOoooOOOOOOO..@@@@@@@.              ",
"                ..@@@@@@@.OOOOooooOOOOOOOOOOOOOOooooOOOO.@@@@@@@..              ",
"                  .@@@@@@@..ooooOOOOOOOOOOOOOOOOOOoooo..@@@@@@@.                ",
"                  ..@@@@@@@.ooOOOOOOOOOOOOOOOOOOOOOOoo.@@@@@@@..                ",
"                    .@@@@@@@..OOOOOXXOOOOOOOOXXOOOOO..@@@@@@@.                  ",
"                    ..@@@@@@@.OOOXXXOOOOOOOOOOXXXOOO.@@@@@@@..                  ",
"                      .@@@@@@@.XXXXOOOOOOOOOOOOXXXX.@@@@@@@.                    ",
"                      ..@@@@@@@.XOOOOOOOOOOOOOOOOX.@@@@@@@..                    ",
"                        .@@@@@@@..OOOOOOOOOOOOOO..@@@@@@@.                      ",
"                        ..@@@@@@@................@@@@@@@..                      ",
"                          ....@@@.oooooooooooooo.@@@....                        ",
"                           ............................                         ",
"                          ..###.++++++++++++++++++.###..                        ",
"                          .####....................####.                        ",
"                        ..### ##########################..                      ",
"                        .################################.                      ",
"                       .##################################.                     ",
"                      ..############################## ###..                    ",
"                     .+.######..##################..######.+.                   ",
"                    ..+.####...####################...####.+..                  ",
"                  ..#.+..... .######################. .....+.#..                ",
"                 ..##.++++. ..######################.. .++++.##..               ",
"                 .oo#.....  .########################.  .....#oo.               ",
"                 .Ooo###.   .########################.   .###ooO.   .....       ",
"                 ..Ooo..    .########################.    ..ooO..  .OOOO.       ",
"                  ..Oo.    .##########################.    .oO..  .OOOOO.       ",
"                   ....    .##########################.    ....  .OOO....       ",
"                           .##########################.         .OOO.           ",
"                           .##########################.        .OOO.            ",
"                           .##########################.       .OOO.             ",
"                           .##########################.      .OOO.              ",
"                           .###############....#######.   ...OOO.               ",
"                           .###############.OOO.######.  .OOOOO.                ",
"                           .###############.OOOO.........OOOOO.                 ",
"                           .###############.OOOOOOOOOOOOOOOO..                  ",
"                           .################..OOOOOOOOOOOO..                    ",
"                           .##################............                      ",
"                           ..####################### .                          ",
"                             .######################.                           ",
"                              .########....########.                            ",
"                               .######.    .######.                             ",
"                               .#####.      .#####.                             ",
"                               .####.        .####.                             ",
"                               .####.        .####.                             ",
"                               .####.        .####.                             ",
"                               ......        ......                             ",
"                               .OOOO.        .OOOO.                             ",
"                               ......        ......                             "
};
