/* XPM */
static char *_9de7ade3baa4382dffed9d214ba4d87FzYQ5sl0OoSw54yt[] = {
/* columns rows colors chars-per-pixel */
"80 80 19 1 ",
"  c None",
". c black",
"X c #464646",
"o c #990030",
"O c #ED1C24",
"+ c #9C5A3C",
"@ c #D46600",
"# c #FF7E00",
"$ c #CF4750",
"% c #108531",
"& c #22B14C",
"* c #A8E61D",
"= c #FFC20E",
"- c #FCCB68",
"; c #E67E85",
": c #B4B4B4",
"> c #FFE4AD",
", c #99D9EA",
"< c white",
/* pixels */
"                                  ..............                                ",
"                                  .,,,,,,,,,,,,.                                ",
"                            ......,,,,,,,,,,,,,,......                          ",
"                          ...,,,,,,,,,,,,,,,,,,,,,,,,...                        ",
"                         .,,,,,,,,,,,<<<<<,,<,,,,,,,,,,,.                       ",
"                        ....,,,,,,<<<<<<,,,,<<,,,,,,,,....                      ",
"                      ..,.##.,,,,,,,,,,,,,,,,,,,,,,,,.##.,..                    ",
"                      .,,.@##.,,,,,,,,,,,,,,,,,,,,,,.##@.,,.                    ",
"                    ..,,,.@=##.,,,,,,,,,,,,,,,,,,,,.##=@.,,,..                  ",
"                    .,,,,.@==##.,,,,,,,,,,,,,,,,,,.##==@.,,,,.                  ",
"                  ..,,,,,.@===##.,,,,,,,,,,,,,,,,.##===@.,,,,,..                ",
"                  .,,,,,,.@====##.,,..........,,.##====@.,,,,,,.                ",
"                ..,,,,,,,.@=====#....#==@@==#....#=====@.,,,,,,,..              ",
"                .,,,,,,,,.@=====.===##==@@==##===.=====@.,,,,,,,,.              ",
"                .,,,,,,,,.@====.====##==@@==##====.====@.,,,,,,,,.              ",
"                .,,,,,,,,.@===.=====##==@@==##=====.===@.,,,,,,,,.              ",
"              ..,,,,,,,,,.@==.======##==@@==##======.==@.,,,,,,,,,..            ",
"              .,,,,,,,,,,.@=.=======#===@@===#=======.=@.,,,,,,,,,,.            ",
"              .,,,,,,,,,,.@.========#===@====#========.@.,,,,,,,,,,.            ",
"              .,,,,,,,,,,..=============@==============..,,,,,,,,,,.            ",
"              .,,,,,,,,,,.==============================.,,,,,,,,,,.            ",
"              .,,,,,,,,,.=========----=======----========.,,,,,,,,,.            ",
"              .,,,,,,,,.==========....-=====-....=========.,,,,,,,,.            ",
"              .,,,,,,,,.=====.===.&%.<.=====.<.%&.===.====.,,,,,,,,.            ",
"              .,,,,,,,,.######...&*...%=====%...*&...#####.,,,,,,,,.            ",
"              .,,,,,,,,.#######===&%.%&.===.&%.%&===######.,,,,,,,,.            ",
"              .,,,,,,,,.===....=====================...===.,,,,,,,,.            ",
"              .,,,,,,,,.======..==================..======.,,,,,,,,.            ",
"              .,,,,,,,,.@@@@@@@@.================.@@@@@@@@.,,,,,,,,.            ",
"              ..,,,,,,,.@@...@@@=.=======-======.=@@@...@@.,,,,,,,..            ",
"                .,,,,,,.=====.....======->-=====.....=====.,,,,,,.              ",
"                .,,,,,,.===============->>>-==============.,,,,,,.              ",
"                .,,,,,,,..=============o$o$o============..,,,,,,,.              ",
"                ..,,,,,,,.==============;$;=============.,,,,,,,..              ",
"                  .,,,,,,,..=========><<<o<<<>========..,,,,,,,.                ",
"                  ..,,,,,,,.========>.<<<+<<<.>=======.,,,,,,,..                ",
"                    .,,,,,,,..=====><<.<<.<<.<<>====..,,,,,,,.                  ",
"                    ..,,,,,,,.=====><<<.....<<<>====.,,,,,,,..                  ",
"                      .,,,,,,,..====><<<<<<<<<>===..,,,,,,,.                    ",
"                      ..,,,,,,,.=====><<<<<<<>====.,,,,,,,..                    ",
"                        .,,,,,,,..====<....<>===..,,,,,,,.                      ",
"                        ..,,,,,,,.......o<.......,,,,,,,..                      ",
"                          ....,,,.#####.oo.#####.,,,....                        ",
"                           ............................                         ",
"                          ..<<<.::::::::::::::::::.<<<..                        ",
"                          .<<<<....................<<<<.                        ",
"                        ..<<< <<<<<<<<<....<<<<<<<<<<<<<..                      ",
"                        .<<<<<<<<<<<<<<.::.<<<<<<<<<<<<<<.                      ",
"                       .<<<<<<<<<<<<<<<.::.<<<<<<<<<<<<<<<.                     ",
"                      ..<<<<<<<<<<<<<<<.::.<OOOOO<<<<< <<<..                    ",
"                     .:.<<<<<<..<<<<<<<.XX.<O<OOO<..<<<<<<.:.                   ",
"                    ..:.<<<<...<<<<<<<<.XX.<O<<OO<<...<<<<.:..                  ",
"                  ..<.:..... .<<<<<<<<<.::.<O<<<O<<<. .....:.<..                ",
"                 ..<<.::::. ..<<<<<<<<<.::.<OO<OO<<<.. .::::.<<..               ",
"                 .##<.....  .<<<<<<<<<<.::.<<OOO<<<<<.  .....<##.               ",
"                 .=##<<<.   .<<<<<<<<<<.::.<<<O<<<<<<.   .<<<##=.   .....       ",
"                 ..=##..    .<<<<<<<<<<.XX.<<<<<<<<<<.    ..##=..  .====.       ",
"                  ..=#.    .<<<<<<<<<<<.XX.<<<<<<<<<<<.    .#=..  .=====.       ",
"                   ....    .<<<<<<<<<<<.::.<<<<<<<<<<<.    ....  .===....       ",
"                           .<<<<<<<<<<<.::.<<<<<<<<<<<.         .===.           ",
"                           .<<<<<<<<<<<.::.<<<<<<<<<<<.        .===.            ",
"                           .<<<<<<<<<<<.::.<<<<<<<<<<<.       .===.             ",
"                           .<<<<<<<<<<<.XX.<<<<<<<<<<<.      .===.              ",
"                           .<<<<<<<<<<<.XX.<<<<<<<<<<<.   ...===.               ",
"                           .<<<<<<<<<<<.::.<<<<<<<<<<<.  .=====.                ",
"                           .<<<<<<<<<<<.::.<<<<<<<<<<<...=====.                 ",
"                           .<<<<<<<<<<<.::.<<<<<<<<<<<.=====..                  ",
"                           .<<<<<<<<<<<.::.<<<<<<<<<<<.===..                    ",
"                           .<<<<<<<<<<<....<<<<<<<<<<<....                      ",
"                           ..<<<<<<<<<<<<<<<<<<<<<<< .                          ",
"                             .<<<<<<<<<<<<<<<<<<<<<<.                           ",
"                              .<<<<<<<<....<<<<<<<<.                            ",
"                               .<<<<<<.    .<<<<<<.                             ",
"                               .<<<<<.      .<<<<<.                             ",
"                               .<<<<.        .<<<<.                             ",
"                               .<<<<.        .<<<<.                             ",
"                               .<<<<.        .<<<<.                             ",
"                               ......        ......                             ",
"                               .====.        .====.                             ",
"                               ......        ......                             "
};
